<?xml version="1.0" encoding="UTF-8"?>
<svg xmlns="http://www.w3.org/2000/svg" xmlns:xlink="http://www.w3.org/1999/xlink" width="16px" height="16px" viewBox="0 0 16 16" version="1.1">
<g id="surface1">
<path style=" stroke:none;fill-rule:nonzero;fill:rgb(61.56863%,72.549021%,91.764706%);fill-opacity:1;" d="M 7.40625 2.40625 C 7.472656 2.507812 7.476562 2.539062 7.46875 2.65625 C 7.496094 2.664062 7.523438 2.671875 7.550781 2.679688 C 7.851562 2.789062 8.101562 2.984375 8.34375 3.1875 C 8.363281 3.203125 8.382812 3.21875 8.402344 3.234375 C 8.480469 3.296875 8.535156 3.351562 8.59375 3.4375 C 8.632812 3.433594 8.632812 3.433594 8.671875 3.429688 C 9.871094 3.335938 10.910156 3.550781 11.84375 4.34375 C 11.921875 4.410156 11.992188 4.480469 12.066406 4.554688 C 12.089844 4.574219 12.089844 4.574219 12.113281 4.601562 C 12.183594 4.671875 12.242188 4.734375 12.289062 4.824219 C 12.351562 4.941406 12.394531 5.015625 12.527344 5.0625 C 12.636719 5.078125 12.75 5.089844 12.859375 5.097656 C 13.558594 5.171875 14.210938 5.378906 14.75 5.84375 C 14.769531 5.859375 14.789062 5.875 14.8125 5.890625 C 15.054688 6.085938 15.351562 6.402344 15.390625 6.71875 C 15.390625 6.796875 15.382812 6.832031 15.332031 6.894531 C 15.28125 6.9375 15.28125 6.9375 15.1875 7 C 15.195312 7.023438 15.203125 7.046875 15.210938 7.070312 C 15.304688 7.347656 15.347656 7.617188 15.375 7.90625 C 15.40625 7.90625 15.433594 7.902344 15.464844 7.902344 C 15.5625 7.90625 15.5625 7.90625 15.636719 7.96875 C 15.699219 8.085938 15.707031 8.152344 15.6875 8.28125 C 15.621094 8.375 15.621094 8.375 15.53125 8.4375 C 15.433594 8.441406 15.433594 8.441406 15.34375 8.4375 C 15.34375 8.460938 15.34375 8.480469 15.34375 8.503906 C 15.328125 8.835938 15.273438 9.230469 15.125 9.53125 C 15.167969 9.527344 15.167969 9.527344 15.210938 9.523438 C 15.3125 9.53125 15.3125 9.53125 15.386719 9.59375 C 15.449219 9.710938 15.449219 9.773438 15.4375 9.90625 C 15.390625 10.011719 15.390625 10.011719 15.328125 10.117188 C 15.316406 10.136719 15.304688 10.15625 15.292969 10.175781 C 15.191406 10.347656 15.066406 10.503906 14.9375 10.65625 C 14.921875 10.671875 14.910156 10.691406 14.894531 10.710938 C 14.511719 11.199219 13.816406 11.605469 13.203125 11.699219 C 13.140625 11.703125 13.140625 11.703125 13.03125 11.6875 C 13.003906 11.65625 13.003906 11.65625 12.976562 11.625 C 12.882812 11.539062 12.824219 11.546875 12.699219 11.546875 C 12.679688 11.546875 12.660156 11.546875 12.640625 11.546875 C 12.570312 11.542969 12.503906 11.542969 12.4375 11.542969 C 12.390625 11.542969 12.34375 11.542969 12.296875 11.542969 C 12.171875 11.542969 12.046875 11.542969 11.921875 11.542969 C 11.746094 11.539062 11.574219 11.539062 11.398438 11.539062 C 11.308594 11.535156 11.214844 11.535156 11.121094 11.535156 C 10.859375 11.535156 10.601562 11.523438 10.34375 11.5 C 10.339844 11.523438 10.335938 11.550781 10.332031 11.574219 C 10.3125 11.660156 10.289062 11.703125 10.234375 11.773438 C 10.21875 11.796875 10.203125 11.816406 10.1875 11.839844 C 10.160156 11.875 10.160156 11.875 10.132812 11.910156 C 10.117188 11.933594 10.097656 11.957031 10.082031 11.984375 C 10.042969 12.035156 10.003906 12.085938 9.964844 12.136719 C 9.90625 12.21875 9.847656 12.300781 9.785156 12.382812 C 9.746094 12.4375 9.707031 12.492188 9.671875 12.542969 C 9.652344 12.570312 9.632812 12.59375 9.613281 12.621094 C 9.597656 12.644531 9.582031 12.667969 9.5625 12.691406 C 9.546875 12.714844 9.53125 12.734375 9.515625 12.757812 C 9.429688 12.859375 9.371094 12.902344 9.234375 12.921875 C 9.125 12.90625 9.125 12.90625 9.03125 12.839844 C 8.949219 12.722656 8.953125 12.671875 8.96875 12.53125 C 9.015625 12.441406 9.074219 12.363281 9.132812 12.28125 C 9.148438 12.261719 9.164062 12.242188 9.179688 12.21875 C 9.234375 12.144531 9.289062 12.074219 9.34375 12 C 9.457031 11.84375 9.570312 11.691406 9.6875 11.53125 C 8.914062 11.515625 8.914062 11.515625 8.125 11.5 C 8.105469 11.5625 8.082031 11.625 8.0625 11.6875 C 8 11.777344 8 11.777344 7.921875 11.875 C 7.894531 11.910156 7.867188 11.945312 7.835938 11.980469 C 7.824219 12 7.808594 12.019531 7.792969 12.039062 C 7.722656 12.128906 7.65625 12.226562 7.585938 12.320312 C 7.242188 12.808594 7.242188 12.808594 7.125 12.90625 C 6.910156 12.929688 6.910156 12.929688 6.796875 12.855469 C 6.730469 12.746094 6.710938 12.695312 6.71875 12.5625 C 6.777344 12.4375 6.855469 12.328125 6.9375 12.21875 C 6.953125 12.199219 6.96875 12.179688 6.984375 12.15625 C 7.078125 12.03125 7.171875 11.90625 7.265625 11.78125 C 7.328125 11.699219 7.382812 11.617188 7.4375 11.53125 C 7.003906 11.503906 6.570312 11.492188 6.132812 11.480469 C 6.074219 11.480469 6.011719 11.480469 5.949219 11.476562 C 5.800781 11.476562 5.648438 11.472656 5.5 11.46875 C 5.480469 11.503906 5.480469 11.503906 5.457031 11.542969 C 5.40625 11.625 5.40625 11.625 5.34375 11.6875 C 4.847656 11.726562 4.34375 11.375 3.984375 11.066406 C 3.5 10.640625 3.136719 10.03125 3.085938 9.378906 C 3.054688 8.738281 3.183594 8.257812 3.46875 7.6875 C 3.453125 7.667969 3.4375 7.648438 3.421875 7.628906 C 3.238281 7.390625 3.121094 7.148438 3 6.875 C 2.957031 6.769531 2.957031 6.769531 2.863281 6.714844 C 2.628906 6.546875 2.597656 6.132812 2.550781 5.867188 C 2.429688 4.996094 2.652344 4.117188 3.160156 3.40625 C 3.230469 3.320312 3.300781 3.238281 3.375 3.15625 C 3.386719 3.140625 3.402344 3.125 3.417969 3.109375 C 4.394531 2.035156 6.117188 1.695312 7.40625 2.40625 Z M 7.40625 2.40625 "/>
<path style=" stroke:none;fill-rule:nonzero;fill:rgb(69.411767%,80.392158%,99.607843%);fill-opacity:1;" d="M 11.304688 4.59375 C 11.382812 4.65625 11.457031 4.71875 11.53125 4.78125 C 11.570312 4.816406 11.570312 4.816406 11.613281 4.851562 C 11.78125 5.003906 11.902344 5.183594 12.023438 5.375 C 12.085938 5.488281 12.085938 5.488281 12.1875 5.5625 C 12.234375 5.570312 12.28125 5.574219 12.328125 5.578125 C 12.359375 5.578125 12.386719 5.582031 12.417969 5.585938 C 12.449219 5.585938 12.476562 5.589844 12.507812 5.59375 C 12.632812 5.601562 12.753906 5.613281 12.875 5.625 C 12.914062 5.628906 12.949219 5.632812 12.988281 5.636719 C 13.726562 5.722656 14.351562 6.121094 14.8125 6.6875 C 14.839844 6.726562 14.867188 6.769531 14.894531 6.8125 C 14.976562 6.917969 15.027344 6.941406 15.15625 6.96875 C 15.15625 6.980469 15.15625 6.988281 15.15625 7 C 15.128906 7 15.105469 7 15.078125 7.003906 C 14.4375 7.03125 13.671875 7.101562 13.1875 7.5625 C 13.164062 7.582031 13.140625 7.605469 13.117188 7.625 C 12.992188 7.75 12.878906 7.875 12.773438 8.015625 C 12.355469 8.53125 11.746094 8.820312 11.09375 8.90625 C 10.980469 8.910156 10.871094 8.910156 10.757812 8.910156 C 10.710938 8.910156 10.710938 8.910156 10.660156 8.910156 C 10.589844 8.910156 10.523438 8.910156 10.453125 8.910156 C 10.347656 8.910156 10.246094 8.910156 10.140625 8.910156 C 9.816406 8.910156 9.496094 8.90625 9.175781 8.882812 C 7.925781 8.796875 7.09375 9.105469 6.070312 9.773438 C 5.71875 10 5.371094 10.207031 4.96875 10.34375 C 4.9375 10.355469 4.90625 10.367188 4.875 10.375 C 4.710938 10.425781 4.542969 10.445312 4.375 10.46875 C 4.335938 10.476562 4.296875 10.480469 4.253906 10.488281 C 4.09375 10.457031 4.027344 10.351562 3.9375 10.21875 C 3.867188 10.097656 3.804688 9.972656 3.75 9.84375 C 3.738281 9.816406 3.722656 9.789062 3.710938 9.761719 C 3.546875 9.367188 3.554688 8.769531 3.71875 8.375 C 3.867188 8.042969 4.050781 7.785156 4.3125 7.53125 C 4.332031 7.511719 4.347656 7.496094 4.367188 7.476562 C 4.703125 7.160156 5.203125 6.953125 5.65625 6.894531 C 5.691406 6.890625 5.726562 6.886719 5.757812 6.882812 C 5.808594 6.875 5.808594 6.875 5.855469 6.871094 C 5.941406 6.851562 5.941406 6.851562 5.992188 6.777344 C 6.035156 6.679688 6.058594 6.585938 6.082031 6.480469 C 6.226562 5.886719 6.554688 5.40625 6.96875 4.96875 C 6.988281 4.945312 7.007812 4.925781 7.027344 4.902344 C 7.390625 4.515625 7.929688 4.210938 8.4375 4.0625 C 8.457031 4.058594 8.476562 4.050781 8.496094 4.046875 C 9.476562 3.765625 10.492188 3.988281 11.304688 4.59375 Z M 11.304688 4.59375 "/>
<path style=" stroke:none;fill-rule:nonzero;fill:rgb(91.764706%,75.294119%,0%);fill-opacity:1;" d="M 7.40625 2.40625 C 7.472656 2.507812 7.476562 2.539062 7.46875 2.65625 C 7.496094 2.664062 7.523438 2.671875 7.550781 2.679688 C 7.851562 2.789062 8.101562 2.984375 8.34375 3.1875 C 8.363281 3.203125 8.382812 3.21875 8.402344 3.234375 C 8.480469 3.296875 8.535156 3.351562 8.59375 3.4375 C 8.632812 3.433594 8.632812 3.433594 8.671875 3.429688 C 9.871094 3.335938 10.910156 3.550781 11.84375 4.34375 C 11.921875 4.410156 11.992188 4.480469 12.066406 4.554688 C 12.089844 4.574219 12.089844 4.574219 12.113281 4.601562 C 12.183594 4.671875 12.242188 4.734375 12.289062 4.824219 C 12.351562 4.941406 12.394531 5.015625 12.527344 5.0625 C 12.636719 5.078125 12.75 5.089844 12.859375 5.097656 C 13.558594 5.171875 14.210938 5.378906 14.75 5.84375 C 14.769531 5.859375 14.789062 5.875 14.8125 5.890625 C 15.023438 6.0625 15.339844 6.375 15.386719 6.65625 C 15.386719 6.765625 15.386719 6.828125 15.328125 6.921875 C 15.21875 6.988281 15.152344 6.984375 15.03125 6.96875 C 14.914062 6.886719 14.835938 6.800781 14.757812 6.679688 C 14.367188 6.136719 13.777344 5.816406 13.125 5.6875 C 12.84375 5.644531 12.566406 5.617188 12.28125 5.613281 C 12.089844 5.574219 12 5.398438 11.898438 5.242188 C 11.449219 4.578125 10.667969 4.148438 9.890625 3.996094 C 9.011719 3.847656 8.164062 4.097656 7.4375 4.59375 C 6.753906 5.085938 6.289062 5.761719 6.082031 6.582031 C 6.023438 6.800781 6.023438 6.800781 5.9375 6.875 C 5.839844 6.90625 5.742188 6.917969 5.644531 6.9375 C 5.085938 7.035156 4.625 7.253906 4.21875 7.65625 C 4.199219 7.675781 4.179688 7.695312 4.160156 7.714844 C 3.765625 8.121094 3.636719 8.640625 3.640625 9.195312 C 3.652344 9.75 3.914062 10.242188 4.3125 10.625 C 4.59375 10.867188 4.941406 11.050781 5.292969 11.171875 C 5.40625 11.21875 5.40625 11.21875 5.46875 11.3125 C 5.488281 11.527344 5.488281 11.527344 5.421875 11.640625 C 5.3125 11.707031 5.214844 11.699219 5.09375 11.6875 C 4.386719 11.480469 3.765625 10.996094 3.402344 10.355469 C 3.085938 9.765625 2.984375 9.097656 3.140625 8.4375 C 3.222656 8.175781 3.347656 7.929688 3.46875 7.6875 C 3.453125 7.667969 3.4375 7.648438 3.421875 7.628906 C 3.238281 7.390625 3.121094 7.148438 3 6.875 C 2.957031 6.769531 2.957031 6.769531 2.863281 6.714844 C 2.628906 6.546875 2.597656 6.132812 2.550781 5.867188 C 2.429688 4.996094 2.652344 4.117188 3.160156 3.40625 C 3.230469 3.320312 3.300781 3.238281 3.375 3.15625 C 3.386719 3.140625 3.402344 3.125 3.417969 3.109375 C 4.394531 2.035156 6.117188 1.695312 7.40625 2.40625 Z M 7.40625 2.40625 "/>
<path style=" stroke:none;fill-rule:nonzero;fill:rgb(0.392157%,14.117648%,22.352941%);fill-opacity:1;" d="M 11.84375 4.34375 C 11.921875 4.410156 11.992188 4.480469 12.066406 4.554688 C 12.089844 4.574219 12.089844 4.574219 12.113281 4.601562 C 12.183594 4.671875 12.242188 4.734375 12.289062 4.824219 C 12.351562 4.941406 12.394531 5.015625 12.527344 5.0625 C 12.636719 5.078125 12.75 5.089844 12.859375 5.097656 C 13.558594 5.171875 14.210938 5.378906 14.75 5.84375 C 14.769531 5.859375 14.789062 5.875 14.8125 5.890625 C 15.023438 6.0625 15.339844 6.375 15.386719 6.65625 C 15.386719 6.765625 15.386719 6.828125 15.328125 6.921875 C 15.21875 6.988281 15.152344 6.984375 15.03125 6.96875 C 14.914062 6.886719 14.835938 6.800781 14.757812 6.679688 C 14.367188 6.136719 13.777344 5.816406 13.125 5.6875 C 12.84375 5.644531 12.566406 5.617188 12.28125 5.613281 C 12.089844 5.574219 12 5.398438 11.898438 5.242188 C 11.449219 4.578125 10.667969 4.148438 9.890625 3.996094 C 9.011719 3.847656 8.164062 4.097656 7.4375 4.59375 C 6.753906 5.085938 6.289062 5.761719 6.082031 6.582031 C 6.023438 6.800781 6.023438 6.800781 5.9375 6.875 C 5.839844 6.90625 5.742188 6.917969 5.644531 6.9375 C 5.085938 7.035156 4.625 7.253906 4.21875 7.65625 C 4.199219 7.675781 4.179688 7.695312 4.160156 7.714844 C 3.765625 8.121094 3.636719 8.640625 3.640625 9.195312 C 3.652344 9.75 3.914062 10.242188 4.3125 10.625 C 4.59375 10.867188 4.941406 11.050781 5.292969 11.171875 C 5.40625 11.21875 5.40625 11.21875 5.46875 11.3125 C 5.488281 11.527344 5.488281 11.527344 5.421875 11.640625 C 5.3125 11.707031 5.214844 11.699219 5.09375 11.6875 C 4.386719 11.480469 3.765625 10.996094 3.402344 10.355469 C 3.085938 9.765625 2.984375 9.09375 3.140625 8.4375 C 3.269531 8.03125 3.46875 7.691406 3.75 7.375 C 3.769531 7.347656 3.789062 7.324219 3.8125 7.296875 C 4.207031 6.820312 4.847656 6.539062 5.4375 6.40625 C 5.527344 6.402344 5.527344 6.402344 5.59375 6.40625 C 5.597656 6.375 5.601562 6.34375 5.605469 6.3125 C 5.695312 5.773438 6.03125 5.257812 6.375 4.84375 C 6.398438 4.816406 6.421875 4.789062 6.441406 4.761719 C 6.945312 4.179688 7.632812 3.746094 8.375 3.554688 C 8.46875 3.535156 8.46875 3.535156 8.546875 3.5 C 9.636719 3.074219 11.007812 3.636719 11.84375 4.34375 Z M 11.84375 4.34375 "/>
<path style=" stroke:none;fill-rule:nonzero;fill:rgb(99.607843%,83.137256%,2.745098%);fill-opacity:1;" d="M 7.25 2.90625 C 7.25 2.925781 7.25 2.949219 7.25 2.96875 C 7.214844 2.984375 7.179688 3 7.140625 3.011719 C 6.316406 3.359375 5.863281 3.886719 5.4375 4.648438 C 5.144531 5.167969 4.789062 5.605469 4.3125 5.96875 C 4.269531 6.003906 4.269531 6.003906 4.226562 6.039062 C 3.992188 6.21875 3.746094 6.375 3.492188 6.53125 C 3.441406 6.558594 3.394531 6.589844 3.347656 6.617188 C 3.28125 6.65625 3.28125 6.65625 3.21875 6.65625 C 3.21875 6.636719 3.222656 6.617188 3.222656 6.597656 C 3.230469 6.375 3.191406 6.1875 3.125 5.976562 C 2.921875 5.296875 3.101562 4.578125 3.429688 3.972656 C 3.53125 3.800781 3.648438 3.648438 3.78125 3.5 C 3.804688 3.476562 3.824219 3.449219 3.847656 3.421875 C 4.75 2.453125 6.101562 2.40625 7.25 2.90625 Z M 7.25 2.90625 "/>
<path style=" stroke:none;fill-rule:nonzero;fill:rgb(0%,13.333334%,21.960784%);fill-opacity:1;" d="M 1.9375 11.875 C 2.023438 11.945312 2.058594 11.984375 2.09375 12.09375 C 2.097656 12.171875 2.101562 12.25 2.105469 12.328125 C 2.105469 12.351562 2.105469 12.375 2.105469 12.398438 C 2.109375 12.46875 2.109375 12.542969 2.109375 12.617188 C 2.113281 12.664062 2.113281 12.714844 2.117188 12.761719 C 2.117188 12.882812 2.121094 13.003906 2.125 13.125 C 2.15625 13.101562 2.191406 13.078125 2.226562 13.054688 C 2.347656 12.972656 2.46875 12.886719 2.59375 12.804688 C 2.648438 12.769531 2.699219 12.730469 2.753906 12.695312 C 2.828125 12.644531 2.90625 12.589844 2.984375 12.539062 C 3.007812 12.523438 3.03125 12.507812 3.054688 12.488281 C 3.195312 12.394531 3.292969 12.347656 3.46875 12.375 C 3.5625 12.4375 3.5625 12.4375 3.625 12.53125 C 3.644531 12.652344 3.644531 12.71875 3.578125 12.824219 C 3.476562 12.929688 3.367188 13.003906 3.242188 13.085938 C 3.21875 13.101562 3.191406 13.117188 3.167969 13.132812 C 3.089844 13.1875 3.011719 13.238281 2.929688 13.289062 C 2.851562 13.339844 2.773438 13.394531 2.695312 13.445312 C 2.644531 13.476562 2.597656 13.511719 2.546875 13.542969 C 2.523438 13.558594 2.503906 13.570312 2.480469 13.585938 C 2.460938 13.597656 2.441406 13.613281 2.421875 13.625 C 2.375 13.652344 2.375 13.652344 2.34375 13.6875 C 2.359375 13.699219 2.375 13.707031 2.390625 13.71875 C 2.546875 13.820312 2.703125 13.925781 2.859375 14.03125 C 2.917969 14.066406 2.976562 14.105469 3.035156 14.144531 C 3.121094 14.203125 3.207031 14.257812 3.289062 14.3125 C 3.316406 14.332031 3.34375 14.347656 3.371094 14.367188 C 3.394531 14.382812 3.417969 14.398438 3.445312 14.414062 C 3.464844 14.429688 3.488281 14.441406 3.507812 14.457031 C 3.5625 14.5 3.5625 14.5 3.625 14.59375 C 3.640625 14.71875 3.636719 14.792969 3.578125 14.90625 C 3.476562 14.988281 3.417969 14.980469 3.292969 14.980469 C 3.179688 14.964844 3.097656 14.90625 3.007812 14.839844 C 2.96875 14.8125 2.929688 14.78125 2.886719 14.753906 C 2.867188 14.738281 2.84375 14.722656 2.824219 14.707031 C 2.679688 14.609375 2.535156 14.511719 2.390625 14.417969 C 2.335938 14.378906 2.277344 14.339844 2.222656 14.304688 C 2.183594 14.277344 2.183594 14.277344 2.148438 14.253906 C 2.128906 14.242188 2.113281 14.230469 2.09375 14.21875 C 2.09375 14.25 2.09375 14.28125 2.09375 14.3125 C 2.097656 14.425781 2.097656 14.539062 2.097656 14.652344 C 2.097656 14.699219 2.097656 14.75 2.097656 14.796875 C 2.097656 14.867188 2.097656 14.9375 2.101562 15.007812 C 2.101562 15.03125 2.101562 15.050781 2.101562 15.074219 C 2.101562 15.230469 2.085938 15.347656 1.976562 15.460938 C 1.882812 15.511719 1.820312 15.511719 1.71875 15.5 C 1.640625 15.472656 1.605469 15.453125 1.558594 15.386719 C 1.519531 15.28125 1.523438 15.175781 1.523438 15.0625 C 1.523438 15.035156 1.523438 15.011719 1.527344 14.988281 C 1.527344 14.910156 1.527344 14.835938 1.527344 14.757812 C 1.527344 14.707031 1.527344 14.652344 1.527344 14.601562 C 1.527344 14.472656 1.53125 14.347656 1.53125 14.21875 C 1.5 14.242188 1.464844 14.261719 1.433594 14.285156 C 1.308594 14.363281 1.1875 14.445312 1.066406 14.523438 C 1.015625 14.558594 0.960938 14.59375 0.910156 14.628906 C 0.835938 14.679688 0.757812 14.726562 0.683594 14.777344 C 0.648438 14.800781 0.648438 14.800781 0.613281 14.824219 C 0.589844 14.839844 0.566406 14.851562 0.546875 14.867188 C 0.515625 14.886719 0.515625 14.886719 0.488281 14.90625 C 0.371094 14.980469 0.261719 14.988281 0.125 14.96875 C 0.0351562 14.917969 0.0078125 14.878906 -0.015625 14.78125 C -0.0273438 14.699219 -0.0195312 14.640625 0 14.5625 C 0.046875 14.511719 0.046875 14.511719 0.113281 14.464844 C 0.136719 14.445312 0.164062 14.425781 0.1875 14.40625 C 0.359375 14.289062 0.527344 14.175781 0.699219 14.058594 C 0.765625 14.015625 0.828125 13.972656 0.894531 13.929688 C 0.933594 13.902344 0.976562 13.875 1.015625 13.847656 C 1.035156 13.835938 1.054688 13.820312 1.074219 13.808594 C 1.210938 13.71875 1.210938 13.71875 1.28125 13.71875 C 1.160156 13.589844 1.035156 13.496094 0.886719 13.398438 C 0.863281 13.386719 0.84375 13.371094 0.820312 13.355469 C 0.75 13.308594 0.675781 13.261719 0.605469 13.214844 C 0.535156 13.167969 0.460938 13.121094 0.390625 13.074219 C 0.347656 13.042969 0.300781 13.015625 0.257812 12.988281 C 0.238281 12.972656 0.21875 12.960938 0.195312 12.945312 C 0.179688 12.933594 0.160156 12.921875 0.144531 12.910156 C 0.0078125 12.8125 0.0078125 12.8125 -0.015625 12.714844 C -0.015625 12.519531 -0.015625 12.519531 0.0625 12.421875 C 0.179688 12.363281 0.246094 12.359375 0.375 12.375 C 0.472656 12.417969 0.554688 12.476562 0.640625 12.539062 C 0.667969 12.554688 0.691406 12.574219 0.71875 12.589844 C 0.796875 12.640625 0.875 12.695312 0.953125 12.75 C 1.003906 12.785156 1.058594 12.824219 1.109375 12.859375 C 1.242188 12.945312 1.371094 13.035156 1.5 13.125 C 1.5 13.09375 1.5 13.058594 1.5 13.027344 C 1.503906 12.90625 1.503906 12.785156 1.507812 12.667969 C 1.507812 12.613281 1.507812 12.5625 1.507812 12.511719 C 1.507812 12.433594 1.511719 12.359375 1.511719 12.285156 C 1.511719 12.25 1.511719 12.25 1.511719 12.214844 C 1.515625 12.0625 1.546875 11.980469 1.65625 11.875 C 1.769531 11.835938 1.824219 11.84375 1.9375 11.875 Z M 1.9375 11.875 "/>
<path style=" stroke:none;fill-rule:nonzero;fill:rgb(0%,13.333334%,21.960784%);fill-opacity:1;" d="M 14.3125 12.375 C 14.386719 12.433594 14.425781 12.480469 14.46875 12.5625 C 14.472656 12.644531 14.472656 12.726562 14.472656 12.808594 C 14.472656 12.832031 14.472656 12.855469 14.472656 12.882812 C 14.472656 12.957031 14.472656 13.035156 14.46875 13.113281 C 14.46875 13.164062 14.46875 13.21875 14.46875 13.269531 C 14.46875 13.398438 14.46875 13.527344 14.46875 13.65625 C 14.5 13.632812 14.535156 13.609375 14.570312 13.589844 C 14.691406 13.503906 14.816406 13.421875 14.9375 13.335938 C 14.992188 13.300781 15.046875 13.265625 15.097656 13.230469 C 15.175781 13.175781 15.253906 13.125 15.328125 13.074219 C 15.351562 13.058594 15.375 13.039062 15.402344 13.023438 C 15.527344 12.941406 15.625 12.878906 15.78125 12.875 C 15.957031 12.945312 15.957031 12.945312 16 13.03125 C 16.015625 13.207031 16.015625 13.207031 16 13.28125 C 15.882812 13.414062 15.746094 13.511719 15.597656 13.609375 C 15.574219 13.625 15.550781 13.640625 15.527344 13.65625 C 15.480469 13.691406 15.429688 13.722656 15.382812 13.757812 C 15.304688 13.808594 15.230469 13.859375 15.15625 13.910156 C 15.109375 13.941406 15.0625 13.972656 15.015625 14.003906 C 14.992188 14.019531 14.96875 14.035156 14.945312 14.050781 C 14.789062 14.15625 14.789062 14.15625 14.71875 14.15625 C 14.832031 14.28125 14.960938 14.363281 15.101562 14.457031 C 15.125 14.472656 15.152344 14.488281 15.175781 14.503906 C 15.253906 14.558594 15.332031 14.609375 15.414062 14.660156 C 15.515625 14.726562 15.621094 14.796875 15.722656 14.867188 C 15.75 14.882812 15.773438 14.898438 15.796875 14.914062 C 15.820312 14.925781 15.839844 14.941406 15.863281 14.957031 C 15.882812 14.96875 15.902344 14.984375 15.921875 14.996094 C 15.96875 15.03125 15.96875 15.03125 16 15.09375 C 16.023438 15.3125 16.023438 15.3125 15.933594 15.4375 C 15.824219 15.511719 15.785156 15.515625 15.65625 15.5 C 15.578125 15.460938 15.507812 15.421875 15.4375 15.371094 C 15.414062 15.359375 15.394531 15.34375 15.371094 15.328125 C 15.300781 15.28125 15.226562 15.234375 15.15625 15.1875 C 15.128906 15.167969 15.097656 15.148438 15.070312 15.128906 C 14.878906 15.003906 14.6875 14.878906 14.5 14.75 C 14.5 14.78125 14.5 14.816406 14.5 14.847656 C 14.5 14.96875 14.496094 15.089844 14.496094 15.207031 C 14.496094 15.261719 14.492188 15.3125 14.492188 15.363281 C 14.492188 15.441406 14.492188 15.515625 14.492188 15.589844 C 14.492188 15.613281 14.492188 15.636719 14.492188 15.660156 C 14.488281 15.785156 14.472656 15.839844 14.394531 15.9375 C 14.3125 16 14.285156 16.019531 14.1875 16.015625 C 14.0625 16 14.0625 16 13.984375 15.945312 C 13.898438 15.816406 13.898438 15.695312 13.894531 15.546875 C 13.894531 15.523438 13.894531 15.5 13.894531 15.476562 C 13.890625 15.40625 13.890625 15.332031 13.890625 15.257812 C 13.886719 15.210938 13.886719 15.160156 13.882812 15.113281 C 13.882812 14.992188 13.878906 14.871094 13.875 14.75 C 13.84375 14.773438 13.808594 14.796875 13.773438 14.820312 C 13.652344 14.902344 13.53125 14.988281 13.40625 15.070312 C 13.351562 15.105469 13.300781 15.144531 13.246094 15.179688 C 13.171875 15.230469 13.09375 15.285156 13.015625 15.335938 C 12.992188 15.351562 12.96875 15.367188 12.945312 15.386719 C 12.804688 15.480469 12.707031 15.527344 12.53125 15.5 C 12.4375 15.4375 12.4375 15.4375 12.375 15.34375 C 12.355469 15.222656 12.355469 15.15625 12.421875 15.050781 C 12.523438 14.945312 12.636719 14.871094 12.757812 14.792969 C 12.78125 14.773438 12.808594 14.757812 12.832031 14.742188 C 12.914062 14.691406 12.992188 14.640625 13.070312 14.585938 C 13.148438 14.535156 13.230469 14.484375 13.308594 14.433594 C 13.359375 14.398438 13.40625 14.367188 13.457031 14.335938 C 13.480469 14.320312 13.5 14.308594 13.523438 14.292969 C 13.542969 14.28125 13.5625 14.265625 13.582031 14.253906 C 13.597656 14.242188 13.609375 14.230469 13.625 14.21875 C 13.625 14.199219 13.625 14.175781 13.625 14.15625 C 13.578125 14.117188 13.578125 14.117188 13.515625 14.078125 C 13.492188 14.0625 13.46875 14.046875 13.445312 14.03125 C 13.417969 14.015625 13.394531 14 13.367188 13.984375 C 13.339844 13.964844 13.316406 13.949219 13.289062 13.929688 C 13.203125 13.875 13.121094 13.820312 13.035156 13.765625 C 12.949219 13.714844 12.867188 13.660156 12.78125 13.605469 C 12.730469 13.570312 12.679688 13.535156 12.625 13.503906 C 12.601562 13.488281 12.578125 13.472656 12.554688 13.457031 C 12.53125 13.441406 12.511719 13.429688 12.488281 13.414062 C 12.4375 13.375 12.4375 13.375 12.375 13.28125 C 12.359375 13.15625 12.363281 13.085938 12.425781 12.972656 C 12.519531 12.890625 12.5625 12.871094 12.6875 12.875 C 12.859375 12.941406 13.015625 13.046875 13.167969 13.148438 C 13.1875 13.164062 13.207031 13.175781 13.230469 13.191406 C 13.292969 13.234375 13.359375 13.277344 13.421875 13.320312 C 13.464844 13.351562 13.511719 13.378906 13.554688 13.410156 C 13.660156 13.480469 13.769531 13.554688 13.875 13.625 C 13.875 13.59375 13.875 13.566406 13.875 13.535156 C 13.878906 13.425781 13.882812 13.316406 13.886719 13.207031 C 13.886719 13.160156 13.886719 13.113281 13.886719 13.0625 C 13.890625 12.996094 13.890625 12.925781 13.894531 12.859375 C 13.894531 12.816406 13.894531 12.777344 13.894531 12.734375 C 13.910156 12.601562 13.929688 12.507812 14.023438 12.414062 C 14.125 12.359375 14.199219 12.359375 14.3125 12.375 Z M 14.3125 12.375 "/>
<path style=" stroke:none;fill-rule:nonzero;fill:rgb(0.392157%,14.117648%,21.568628%);fill-opacity:1;" d="M 7.40625 2.40625 C 7.484375 2.523438 7.472656 2.582031 7.453125 2.714844 C 7.4375 2.78125 7.4375 2.78125 7.386719 2.84375 C 7.203125 2.917969 7.082031 2.875 6.90625 2.804688 C 6.273438 2.550781 5.507812 2.519531 4.875 2.777344 C 4.105469 3.109375 3.558594 3.660156 3.246094 4.433594 C 3.007812 5.046875 3.042969 5.695312 3.25 6.3125 C 3.265625 6.445312 3.273438 6.554688 3.199219 6.671875 C 3.105469 6.730469 3.046875 6.746094 2.9375 6.75 C 2.839844 6.71875 2.796875 6.683594 2.746094 6.59375 C 2.417969 5.832031 2.457031 4.894531 2.757812 4.128906 C 2.90625 3.769531 3.109375 3.445312 3.375 3.15625 C 3.386719 3.140625 3.402344 3.125 3.417969 3.109375 C 4.394531 2.035156 6.117188 1.695312 7.40625 2.40625 Z M 7.40625 2.40625 "/>
<path style=" stroke:none;fill-rule:nonzero;fill:rgb(0.392157%,14.117648%,22.352941%);fill-opacity:1;" d="M 15.3125 9.53125 C 15.410156 9.613281 15.433594 9.664062 15.449219 9.789062 C 15.4375 9.925781 15.398438 10 15.328125 10.117188 C 15.316406 10.136719 15.304688 10.15625 15.292969 10.175781 C 15.191406 10.347656 15.066406 10.503906 14.9375 10.65625 C 14.921875 10.671875 14.910156 10.691406 14.894531 10.710938 C 14.511719 11.199219 13.816406 11.605469 13.203125 11.699219 C 13.105469 11.707031 13.039062 11.691406 12.953125 11.640625 C 12.898438 11.546875 12.890625 11.484375 12.890625 11.375 C 12.914062 11.28125 12.953125 11.246094 13.03125 11.1875 C 13.113281 11.15625 13.195312 11.125 13.28125 11.101562 C 13.65625 10.972656 13.980469 10.796875 14.28125 10.53125 C 14.300781 10.511719 14.324219 10.492188 14.347656 10.472656 C 14.558594 10.273438 14.710938 10.03125 14.867188 9.789062 C 14.886719 9.761719 14.902344 9.738281 14.917969 9.710938 C 14.9375 9.679688 14.9375 9.679688 14.960938 9.648438 C 15.058594 9.515625 15.160156 9.511719 15.3125 9.53125 Z M 15.3125 9.53125 "/>
<path style=" stroke:none;fill-rule:nonzero;fill:rgb(0%,13.333334%,21.568628%);fill-opacity:1;" d="M 7.5 14.1875 C 7.585938 14.265625 7.617188 14.316406 7.644531 14.429688 C 7.625 14.53125 7.601562 14.578125 7.542969 14.660156 C 7.523438 14.6875 7.507812 14.710938 7.492188 14.738281 C 7.410156 14.851562 7.328125 14.964844 7.246094 15.078125 C 7.230469 15.105469 7.210938 15.128906 7.195312 15.152344 C 7.070312 15.320312 6.949219 15.488281 6.824219 15.65625 C 6.808594 15.675781 6.792969 15.695312 6.777344 15.71875 C 6.761719 15.738281 6.75 15.757812 6.734375 15.777344 C 6.71875 15.792969 6.707031 15.808594 6.695312 15.828125 C 6.582031 15.964844 6.582031 15.964844 6.441406 15.984375 C 6.335938 15.980469 6.308594 15.96875 6.21875 15.90625 C 6.140625 15.789062 6.140625 15.734375 6.15625 15.59375 C 6.199219 15.519531 6.234375 15.460938 6.289062 15.398438 C 6.316406 15.359375 6.34375 15.320312 6.375 15.28125 C 6.390625 15.261719 6.402344 15.242188 6.421875 15.21875 C 6.488281 15.128906 6.554688 15.035156 6.621094 14.945312 C 6.691406 14.847656 6.757812 14.753906 6.828125 14.660156 C 6.859375 14.617188 6.886719 14.574219 6.917969 14.535156 C 6.957031 14.480469 6.996094 14.425781 7.03125 14.375 C 7.054688 14.347656 7.074219 14.316406 7.097656 14.289062 C 7.21875 14.144531 7.320312 14.140625 7.5 14.1875 Z M 7.5 14.1875 "/>
<path style=" stroke:none;fill-rule:nonzero;fill:rgb(0%,13.333334%,21.568628%);fill-opacity:1;" d="M 9.65625 14.1875 C 9.746094 14.269531 9.777344 14.3125 9.789062 14.433594 C 9.765625 14.691406 9.527344 14.921875 9.371094 15.125 C 9.273438 15.25 9.179688 15.378906 9.085938 15.507812 C 9.039062 15.578125 8.988281 15.648438 8.9375 15.71875 C 8.90625 15.761719 8.90625 15.761719 8.878906 15.800781 C 8.757812 15.957031 8.757812 15.957031 8.652344 15.988281 C 8.558594 15.992188 8.480469 15.972656 8.390625 15.9375 C 8.332031 15.863281 8.308594 15.792969 8.300781 15.699219 C 8.324219 15.535156 8.4375 15.410156 8.53125 15.28125 C 8.542969 15.261719 8.558594 15.246094 8.570312 15.226562 C 8.648438 15.121094 8.726562 15.019531 8.804688 14.917969 C 8.875 14.820312 8.945312 14.722656 9.015625 14.625 C 9.035156 14.601562 9.050781 14.574219 9.070312 14.546875 C 9.105469 14.5 9.140625 14.449219 9.175781 14.398438 C 9.191406 14.375 9.207031 14.355469 9.226562 14.332031 C 9.238281 14.308594 9.253906 14.289062 9.265625 14.269531 C 9.382812 14.140625 9.492188 14.144531 9.65625 14.1875 Z M 9.65625 14.1875 "/>
<path style=" stroke:none;fill-rule:nonzero;fill:rgb(0%,13.333334%,21.568628%);fill-opacity:1;" d="M 1.40625 1.03125 C 1.648438 1.191406 1.855469 1.445312 2.0625 1.648438 C 2.125 1.714844 2.1875 1.777344 2.25 1.839844 C 2.289062 1.878906 2.328125 1.917969 2.371094 1.960938 C 2.390625 1.976562 2.40625 1.996094 2.425781 2.015625 C 2.589844 2.179688 2.589844 2.179688 2.605469 2.320312 C 2.59375 2.4375 2.59375 2.4375 2.53125 2.53125 C 2.4375 2.59375 2.4375 2.59375 2.335938 2.617188 C 2.214844 2.59375 2.1875 2.574219 2.101562 2.496094 C 2.078125 2.476562 2.058594 2.457031 2.035156 2.4375 C 2.011719 2.417969 1.992188 2.394531 1.96875 2.375 C 1.949219 2.355469 1.929688 2.339844 1.910156 2.320312 C 1.789062 2.207031 1.667969 2.089844 1.550781 1.972656 C 1.503906 1.929688 1.460938 1.890625 1.417969 1.847656 C 1.355469 1.785156 1.289062 1.722656 1.226562 1.664062 C 1.207031 1.644531 1.1875 1.625 1.167969 1.605469 C 1.066406 1.503906 1.019531 1.4375 1.015625 1.289062 C 1.019531 1.195312 1.03125 1.15625 1.078125 1.078125 C 1.191406 1.011719 1.28125 1 1.40625 1.03125 Z M 1.40625 1.03125 "/>
<path style=" stroke:none;fill-rule:nonzero;fill:rgb(0%,13.725491%,21.960784%);fill-opacity:1;" d="M 7.9375 11.21875 C 8.035156 11.292969 8.082031 11.351562 8.132812 11.460938 C 8.125 11.574219 8.105469 11.601562 8.042969 11.691406 C 8.027344 11.71875 8.007812 11.742188 7.992188 11.765625 C 7.972656 11.792969 7.957031 11.816406 7.9375 11.84375 C 7.921875 11.867188 7.90625 11.890625 7.886719 11.914062 C 7.839844 11.980469 7.789062 12.050781 7.742188 12.117188 C 7.722656 12.144531 7.703125 12.167969 7.6875 12.191406 C 7.179688 12.890625 7.179688 12.890625 7.0625 12.921875 C 6.953125 12.921875 6.890625 12.917969 6.796875 12.859375 C 6.730469 12.746094 6.710938 12.695312 6.71875 12.5625 C 6.777344 12.4375 6.855469 12.328125 6.9375 12.21875 C 6.953125 12.199219 6.964844 12.179688 6.980469 12.160156 C 7.089844 12.011719 7.199219 11.863281 7.3125 11.71875 C 7.335938 11.691406 7.355469 11.660156 7.378906 11.632812 C 7.71875 11.191406 7.71875 11.191406 7.9375 11.21875 Z M 7.9375 11.21875 "/>
<path style=" stroke:none;fill-rule:nonzero;fill:rgb(0%,13.725491%,21.960784%);fill-opacity:1;" d="M 10.21875 11.25 C 10.296875 11.300781 10.296875 11.300781 10.34375 11.375 C 10.359375 11.550781 10.332031 11.636719 10.226562 11.773438 C 10.214844 11.792969 10.203125 11.808594 10.191406 11.828125 C 10.164062 11.863281 10.136719 11.902344 10.109375 11.9375 C 10.058594 12.003906 10.011719 12.074219 9.960938 12.140625 C 9.457031 12.851562 9.457031 12.851562 9.34375 12.90625 C 9.207031 12.921875 9.144531 12.921875 9.03125 12.84375 C 8.949219 12.722656 8.953125 12.671875 8.96875 12.53125 C 9.011719 12.441406 9.070312 12.363281 9.132812 12.28125 C 9.148438 12.261719 9.167969 12.238281 9.183594 12.214844 C 9.21875 12.167969 9.253906 12.117188 9.289062 12.070312 C 9.34375 12.003906 9.394531 11.933594 9.445312 11.863281 C 9.941406 11.1875 9.941406 11.1875 10.21875 11.25 Z M 10.21875 11.25 "/>
<path style=" stroke:none;fill-rule:nonzero;fill:rgb(0%,13.333334%,21.568628%);fill-opacity:1;" d="M 0.375 3.09375 C 0.46875 3.125 0.554688 3.167969 0.644531 3.214844 C 0.667969 3.226562 0.691406 3.238281 0.71875 3.25 C 0.769531 3.277344 0.820312 3.300781 0.871094 3.328125 C 0.949219 3.371094 1.027344 3.410156 1.105469 3.449219 C 1.15625 3.472656 1.207031 3.5 1.257812 3.523438 C 1.292969 3.542969 1.292969 3.542969 1.328125 3.558594 C 1.433594 3.613281 1.496094 3.648438 1.5625 3.75 C 1.578125 3.875 1.574219 3.945312 1.511719 4.058594 C 1.414062 4.144531 1.378906 4.152344 1.25 4.15625 C 1.132812 4.113281 1.019531 4.058594 0.90625 4 C 0.875 3.984375 0.84375 3.96875 0.8125 3.953125 C 0.71875 3.90625 0.625 3.859375 0.53125 3.8125 C 0.503906 3.800781 0.480469 3.785156 0.453125 3.773438 C 0.0820312 3.582031 0.0820312 3.582031 0 3.5 C -0.0234375 3.367188 -0.0195312 3.253906 0.046875 3.140625 C 0.15625 3.078125 0.253906 3.078125 0.375 3.09375 Z M 0.375 3.09375 "/>
<path style=" stroke:none;fill-rule:nonzero;fill:rgb(0%,13.725491%,21.960784%);fill-opacity:1;" d="M 3.429688 -0.0195312 C 3.5625 0.0195312 3.621094 0.148438 3.683594 0.261719 C 3.707031 0.304688 3.726562 0.34375 3.746094 0.382812 C 3.757812 0.40625 3.765625 0.425781 3.777344 0.449219 C 3.800781 0.496094 3.824219 0.539062 3.847656 0.585938 C 3.878906 0.652344 3.914062 0.722656 3.949219 0.792969 C 3.972656 0.835938 3.996094 0.878906 4.015625 0.925781 C 4.027344 0.945312 4.039062 0.964844 4.046875 0.988281 C 4.105469 1.105469 4.144531 1.210938 4.15625 1.34375 C 4.105469 1.453125 4.070312 1.496094 3.96875 1.5625 C 3.855469 1.578125 3.800781 1.574219 3.707031 1.515625 C 3.605469 1.417969 3.554688 1.324219 3.492188 1.203125 C 3.480469 1.179688 3.46875 1.15625 3.457031 1.132812 C 3.433594 1.085938 3.410156 1.035156 3.386719 0.988281 C 3.351562 0.914062 3.3125 0.839844 3.273438 0.769531 C 3.25 0.722656 3.226562 0.675781 3.203125 0.628906 C 3.1875 0.59375 3.1875 0.59375 3.171875 0.5625 C 3.097656 0.410156 3.078125 0.296875 3.09375 0.125 C 3.175781 -0.015625 3.28125 -0.015625 3.429688 -0.0195312 Z M 3.429688 -0.0195312 "/>
<path style=" stroke:none;fill-rule:nonzero;fill:rgb(0%,13.333334%,21.960784%);fill-opacity:1;" d="M 6.0625 0 C 6.136719 0.0585938 6.175781 0.101562 6.21875 0.1875 C 6.226562 0.292969 6.226562 0.402344 6.226562 0.507812 C 6.226562 0.539062 6.226562 0.570312 6.226562 0.601562 C 6.230469 0.878906 6.230469 0.878906 6.125 1 C 5.996094 1.058594 5.9375 1.074219 5.804688 1.027344 C 5.714844 0.964844 5.695312 0.941406 5.65625 0.84375 C 5.644531 0.734375 5.644531 0.625 5.648438 0.515625 C 5.644531 0.488281 5.644531 0.457031 5.644531 0.429688 C 5.644531 0.15625 5.644531 0.15625 5.75 0.03125 C 5.851562 -0.0195312 5.953125 -0.015625 6.0625 0 Z M 6.0625 0 "/>
<path style=" stroke:none;fill-rule:nonzero;fill:rgb(0%,13.333334%,21.960784%);fill-opacity:1;" d="M 1.03125 5.136719 C 1.082031 5.136719 1.082031 5.136719 1.132812 5.136719 C 1.378906 5.136719 1.378906 5.136719 1.507812 5.230469 C 1.582031 5.339844 1.585938 5.398438 1.5625 5.53125 C 1.507812 5.617188 1.507812 5.617188 1.40625 5.6875 C 1.28125 5.710938 1.15625 5.707031 1.03125 5.703125 C 0.976562 5.703125 0.976562 5.703125 0.925781 5.703125 C 0.644531 5.699219 0.644531 5.699219 0.53125 5.59375 C 0.507812 5.527344 0.507812 5.527344 0.5 5.457031 C 0.496094 5.433594 0.492188 5.410156 0.488281 5.386719 C 0.5 5.3125 0.5 5.3125 0.554688 5.226562 C 0.707031 5.121094 0.847656 5.132812 1.03125 5.136719 Z M 1.03125 5.136719 "/>
<path style=" stroke:none;fill-rule:nonzero;fill:rgb(0.784314%,14.509805%,22.745098%);fill-opacity:1;" d="M 15.5625 7.90625 C 15.660156 7.992188 15.683594 8.042969 15.703125 8.171875 C 15.6875 8.28125 15.6875 8.28125 15.621094 8.375 C 15.53125 8.4375 15.53125 8.4375 15.4375 8.453125 C 15.324219 8.433594 15.269531 8.394531 15.1875 8.3125 C 15.140625 8.222656 15.140625 8.164062 15.15625 8.0625 C 15.28125 7.921875 15.371094 7.871094 15.5625 7.90625 Z M 15.5625 7.90625 "/>
<path style=" stroke:none;fill-rule:nonzero;fill:rgb(97.647059%,81.960785%,2.745098%);fill-opacity:1;" d="M 7.46875 2.65625 C 7.589844 2.691406 7.664062 2.71875 7.75 2.8125 C 7.707031 2.828125 7.660156 2.84375 7.617188 2.859375 C 7.59375 2.871094 7.566406 2.878906 7.542969 2.890625 C 7.460938 2.90625 7.421875 2.902344 7.34375 2.875 C 7.386719 2.804688 7.425781 2.730469 7.46875 2.65625 Z M 7.46875 2.65625 "/>
</g>
</svg>
