<?xml version="1.0" encoding="UTF-8"?>
<svg xmlns="http://www.w3.org/2000/svg" xmlns:xlink="http://www.w3.org/1999/xlink" width="16px" height="16px" viewBox="0 0 16 16" version="1.1">
<g id="surface1">
<path style=" stroke:none;fill-rule:nonzero;fill:rgb(69.411767%,80.392158%,99.607843%);fill-opacity:1;" d="M 7.148438 4.21875 C 7.167969 4.222656 7.191406 4.230469 7.21875 4.238281 C 7.359375 4.289062 7.476562 4.34375 7.59375 4.4375 C 7.605469 4.480469 7.617188 4.519531 7.625 4.5625 C 7.675781 4.585938 7.730469 4.605469 7.78125 4.625 C 8.160156 4.832031 8.734375 5.261719 8.875 5.6875 C 8.914062 5.675781 8.949219 5.667969 8.988281 5.65625 C 9.503906 5.542969 10.09375 5.589844 10.59375 5.75 C 10.613281 5.757812 10.636719 5.761719 10.65625 5.769531 C 11.164062 5.933594 11.625 6.1875 12.03125 6.53125 C 12.046875 6.542969 12.0625 6.558594 12.082031 6.574219 C 12.316406 6.773438 12.519531 6.988281 12.6875 7.25 C 12.6875 7.269531 12.6875 7.292969 12.6875 7.3125 C 12.707031 7.3125 12.722656 7.308594 12.742188 7.308594 C 13.652344 7.28125 14.542969 7.648438 15.222656 8.246094 C 15.417969 8.429688 15.695312 8.71875 15.71875 9 C 15.695312 9.078125 15.664062 9.140625 15.617188 9.210938 C 15.582031 9.316406 15.617188 9.386719 15.648438 9.496094 C 15.71875 9.726562 15.742188 9.945312 15.75 10.1875 C 15.78125 10.195312 15.808594 10.203125 15.839844 10.210938 C 15.9375 10.25 15.9375 10.25 16 10.34375 C 16.023438 10.5625 16.023438 10.5625 15.929688 10.6875 C 15.84375 10.75 15.84375 10.75 15.71875 10.75 C 15.71875 10.769531 15.71875 10.785156 15.71875 10.804688 C 15.707031 11.011719 15.664062 11.203125 15.609375 11.402344 C 15.605469 11.429688 15.597656 11.453125 15.589844 11.480469 C 15.558594 11.605469 15.519531 11.726562 15.46875 11.84375 C 15.496094 11.851562 15.527344 11.859375 15.554688 11.867188 C 15.703125 11.925781 15.703125 11.925781 15.75 12 C 15.792969 12.273438 15.648438 12.464844 15.5 12.6875 C 15.144531 13.171875 14.753906 13.550781 14.214844 13.828125 C 14.195312 13.835938 14.175781 13.84375 14.160156 13.855469 C 14.097656 13.886719 14.03125 13.910156 13.96875 13.9375 C 13.933594 13.953125 13.933594 13.953125 13.894531 13.96875 C 13.527344 14.105469 13.140625 14.082031 12.753906 14.078125 C 12.671875 14.078125 12.589844 14.082031 12.507812 14.082031 C 12.3125 14.082031 12.113281 14.082031 11.914062 14.082031 C 11.753906 14.082031 11.589844 14.082031 11.429688 14.082031 C 11.40625 14.082031 11.382812 14.082031 11.359375 14.082031 C 11.3125 14.082031 11.265625 14.082031 11.21875 14.082031 C 10.78125 14.082031 10.34375 14.082031 9.90625 14.082031 C 9.503906 14.082031 9.105469 14.082031 8.703125 14.082031 C 8.292969 14.085938 7.878906 14.085938 7.46875 14.085938 C 7.238281 14.085938 7.007812 14.085938 6.777344 14.085938 C 6.558594 14.085938 6.339844 14.085938 6.125 14.085938 C 6.042969 14.085938 5.964844 14.085938 5.886719 14.085938 C 5.457031 14.089844 5.101562 14.082031 4.71875 13.875 C 4.683594 13.855469 4.648438 13.839844 4.613281 13.820312 C 4.386719 13.699219 4.191406 13.542969 4 13.375 C 3.980469 13.359375 3.960938 13.339844 3.941406 13.324219 C 3.46875 12.886719 3.175781 12.242188 3.144531 11.601562 C 3.128906 11.050781 3.21875 10.617188 3.476562 10.136719 C 3.539062 10.023438 3.539062 10.023438 3.5625 9.90625 C 3.511719 9.820312 3.511719 9.820312 3.441406 9.734375 C 3.3125 9.558594 3.214844 9.378906 3.125 9.183594 C 3.109375 9.15625 3.097656 9.132812 3.085938 9.105469 C 3 8.917969 3 8.917969 3 8.8125 C 2.976562 8.804688 2.953125 8.796875 2.925781 8.789062 C 2.800781 8.730469 2.792969 8.652344 2.746094 8.527344 C 2.457031 7.59375 2.550781 6.640625 3.003906 5.777344 C 3.148438 5.511719 3.324219 5.285156 3.53125 5.0625 C 3.550781 5.042969 3.566406 5.019531 3.585938 5 C 4.480469 4.03125 5.941406 3.828125 7.148438 4.21875 Z M 7.148438 4.21875 "/>
<path style=" stroke:none;fill-rule:nonzero;fill:rgb(99.215686%,83.137256%,2.745098%);fill-opacity:1;" d="M 7.148438 4.21875 C 7.167969 4.222656 7.191406 4.230469 7.21875 4.238281 C 7.359375 4.289062 7.476562 4.34375 7.59375 4.4375 C 7.605469 4.480469 7.617188 4.519531 7.625 4.5625 C 7.675781 4.585938 7.730469 4.605469 7.78125 4.625 C 8.160156 4.832031 8.734375 5.261719 8.875 5.6875 C 8.914062 5.675781 8.949219 5.667969 8.988281 5.65625 C 9.503906 5.542969 10.09375 5.589844 10.59375 5.75 C 10.613281 5.757812 10.636719 5.761719 10.65625 5.769531 C 11.164062 5.933594 11.625 6.1875 12.03125 6.53125 C 12.046875 6.542969 12.0625 6.558594 12.082031 6.574219 C 12.316406 6.773438 12.519531 6.988281 12.6875 7.25 C 12.6875 7.269531 12.6875 7.292969 12.6875 7.3125 C 12.707031 7.3125 12.722656 7.308594 12.742188 7.308594 C 13.652344 7.28125 14.542969 7.648438 15.222656 8.246094 C 15.421875 8.429688 15.691406 8.71875 15.71875 9 C 15.695312 9.101562 15.667969 9.144531 15.585938 9.214844 C 15.460938 9.265625 15.410156 9.265625 15.28125 9.21875 C 15.1875 9.121094 15.109375 9.015625 15.03125 8.90625 C 14.585938 8.355469 13.96875 8.023438 13.269531 7.917969 C 13.171875 7.90625 13.078125 7.898438 12.980469 7.894531 C 12.945312 7.890625 12.914062 7.886719 12.882812 7.886719 C 12.816406 7.882812 12.753906 7.878906 12.6875 7.875 C 12.515625 7.863281 12.402344 7.851562 12.28125 7.71875 C 12.238281 7.652344 12.238281 7.652344 12.199219 7.578125 C 11.800781 6.890625 11.027344 6.46875 10.28125 6.257812 C 9.445312 6.035156 8.566406 6.253906 7.828125 6.664062 C 7.617188 6.789062 7.429688 6.933594 7.25 7.09375 C 7.222656 7.117188 7.195312 7.140625 7.164062 7.167969 C 6.679688 7.621094 6.328125 8.273438 6.1875 8.921875 C 6.152344 9.042969 6.136719 9.085938 6.03125 9.15625 C 5.960938 9.175781 5.886719 9.1875 5.816406 9.203125 C 5.109375 9.324219 4.542969 9.617188 4.09375 10.1875 C 3.746094 10.695312 3.660156 11.226562 3.742188 11.824219 C 3.777344 12.011719 3.847656 12.175781 3.9375 12.34375 C 3.953125 12.371094 3.964844 12.398438 3.980469 12.421875 C 4.269531 12.941406 4.75 13.3125 5.3125 13.5 C 5.359375 13.503906 5.402344 13.503906 5.449219 13.503906 C 5.476562 13.503906 5.507812 13.503906 5.535156 13.503906 C 5.566406 13.503906 5.597656 13.503906 5.628906 13.503906 C 5.664062 13.503906 5.695312 13.503906 5.730469 13.503906 C 5.839844 13.503906 5.953125 13.503906 6.0625 13.503906 C 6.140625 13.503906 6.222656 13.507812 6.300781 13.507812 C 6.539062 13.507812 6.777344 13.507812 7.019531 13.507812 C 7.128906 13.507812 7.242188 13.507812 7.355469 13.507812 C 7.730469 13.507812 8.105469 13.507812 8.480469 13.507812 C 8.574219 13.507812 8.671875 13.507812 8.769531 13.507812 C 8.792969 13.507812 8.820312 13.507812 8.84375 13.507812 C 9.234375 13.507812 9.625 13.511719 10.015625 13.511719 C 10.417969 13.511719 10.820312 13.511719 11.21875 13.511719 C 11.445312 13.511719 11.671875 13.511719 11.894531 13.515625 C 12.109375 13.515625 12.320312 13.515625 12.53125 13.515625 C 12.609375 13.515625 12.6875 13.515625 12.765625 13.515625 C 13.304688 13.527344 13.304688 13.527344 13.8125 13.375 C 13.847656 13.359375 13.882812 13.347656 13.917969 13.332031 C 14.515625 13.039062 14.921875 12.582031 15.234375 12 C 15.292969 11.921875 15.351562 11.886719 15.4375 11.84375 C 15.546875 11.847656 15.605469 11.863281 15.699219 11.921875 C 15.757812 12.011719 15.773438 12.074219 15.765625 12.175781 C 15.640625 12.761719 15.015625 13.332031 14.53125 13.648438 C 14.429688 13.710938 14.324219 13.769531 14.214844 13.828125 C 14.195312 13.835938 14.175781 13.84375 14.160156 13.855469 C 14.097656 13.886719 14.03125 13.910156 13.96875 13.9375 C 13.933594 13.953125 13.933594 13.953125 13.894531 13.96875 C 13.527344 14.105469 13.140625 14.082031 12.753906 14.078125 C 12.671875 14.078125 12.589844 14.082031 12.507812 14.082031 C 12.3125 14.082031 12.113281 14.082031 11.914062 14.082031 C 11.753906 14.082031 11.589844 14.082031 11.429688 14.082031 C 11.40625 14.082031 11.382812 14.082031 11.359375 14.082031 C 11.3125 14.082031 11.265625 14.082031 11.21875 14.082031 C 10.78125 14.082031 10.34375 14.082031 9.90625 14.082031 C 9.503906 14.082031 9.105469 14.082031 8.703125 14.082031 C 8.292969 14.085938 7.878906 14.085938 7.46875 14.085938 C 7.238281 14.085938 7.007812 14.085938 6.777344 14.085938 C 6.558594 14.085938 6.339844 14.085938 6.125 14.085938 C 6.042969 14.085938 5.964844 14.085938 5.886719 14.085938 C 5.457031 14.089844 5.101562 14.082031 4.71875 13.875 C 4.683594 13.855469 4.648438 13.839844 4.613281 13.820312 C 4.386719 13.699219 4.191406 13.542969 4 13.375 C 3.980469 13.359375 3.960938 13.339844 3.941406 13.324219 C 3.46875 12.886719 3.175781 12.242188 3.144531 11.601562 C 3.128906 11.050781 3.21875 10.617188 3.476562 10.136719 C 3.539062 10.023438 3.539062 10.023438 3.5625 9.90625 C 3.511719 9.820312 3.511719 9.820312 3.441406 9.734375 C 3.3125 9.558594 3.214844 9.378906 3.125 9.183594 C 3.109375 9.15625 3.097656 9.132812 3.085938 9.105469 C 3 8.917969 3 8.917969 3 8.8125 C 2.976562 8.804688 2.953125 8.796875 2.925781 8.789062 C 2.800781 8.730469 2.792969 8.652344 2.746094 8.527344 C 2.457031 7.59375 2.550781 6.640625 3.003906 5.777344 C 3.148438 5.511719 3.324219 5.285156 3.53125 5.0625 C 3.550781 5.042969 3.566406 5.019531 3.585938 5 C 4.480469 4.03125 5.941406 3.828125 7.148438 4.21875 Z M 7.148438 4.21875 "/>
<path style=" stroke:none;fill-rule:nonzero;fill:rgb(61.56863%,72.549021%,91.764706%);fill-opacity:1;" d="M 14.984375 8.808594 C 15.03125 8.863281 15.074219 8.921875 15.113281 8.976562 C 15.226562 9.140625 15.226562 9.140625 15.398438 9.21875 C 15.449219 9.21875 15.449219 9.21875 15.5 9.21875 C 15.519531 9.21875 15.542969 9.21875 15.5625 9.21875 C 15.679688 9.535156 15.765625 9.847656 15.75 10.1875 C 15.78125 10.195312 15.808594 10.203125 15.839844 10.210938 C 15.9375 10.25 15.9375 10.25 16 10.34375 C 16.023438 10.5625 16.023438 10.5625 15.929688 10.6875 C 15.84375 10.75 15.84375 10.75 15.71875 10.75 C 15.71875 10.769531 15.71875 10.785156 15.71875 10.804688 C 15.707031 11.011719 15.664062 11.203125 15.613281 11.398438 C 15.605469 11.425781 15.601562 11.449219 15.59375 11.476562 C 15.496094 11.839844 15.496094 11.839844 15.359375 11.921875 C 15.253906 11.984375 15.222656 12.0625 15.164062 12.171875 C 15.046875 12.386719 14.914062 12.570312 14.75 12.75 C 14.722656 12.78125 14.722656 12.78125 14.699219 12.808594 C 14.351562 13.183594 13.789062 13.523438 13.273438 13.542969 C 13.214844 13.542969 13.152344 13.542969 13.09375 13.542969 C 13.042969 13.542969 13.042969 13.542969 12.992188 13.542969 C 12.882812 13.542969 12.773438 13.542969 12.664062 13.542969 C 12.582031 13.542969 12.503906 13.542969 12.421875 13.546875 C 12.230469 13.546875 12.039062 13.546875 11.84375 13.546875 C 11.6875 13.546875 11.53125 13.546875 11.375 13.546875 C 11.328125 13.546875 11.28125 13.546875 11.238281 13.546875 C 11.214844 13.546875 11.191406 13.546875 11.167969 13.546875 C 10.742188 13.546875 10.316406 13.546875 9.890625 13.546875 C 9.5 13.546875 9.113281 13.546875 8.722656 13.546875 C 8.320312 13.550781 7.921875 13.550781 7.519531 13.550781 C 7.296875 13.550781 7.070312 13.550781 6.847656 13.550781 C 6.636719 13.550781 6.425781 13.550781 6.214844 13.550781 C 6.136719 13.550781 6.058594 13.550781 5.980469 13.550781 C 5.234375 13.554688 5.234375 13.554688 4.9375 13.375 C 4.90625 13.359375 4.875 13.339844 4.84375 13.324219 C 4.59375 13.175781 4.355469 12.988281 4.1875 12.75 C 4.214844 12.746094 4.242188 12.742188 4.273438 12.734375 C 5.058594 12.597656 5.726562 12.421875 6.324219 11.867188 C 6.671875 11.546875 7.046875 11.304688 7.46875 11.09375 C 7.507812 11.074219 7.507812 11.074219 7.546875 11.054688 C 7.925781 10.871094 8.316406 10.820312 8.71875 10.9375 C 8.988281 11.035156 9.246094 11.160156 9.503906 11.28125 C 9.695312 11.371094 9.886719 11.445312 10.09375 11.5 C 10.125 11.507812 10.15625 11.515625 10.1875 11.527344 C 10.449219 11.59375 10.695312 11.609375 10.96875 11.609375 C 11.007812 11.609375 11.046875 11.609375 11.085938 11.609375 C 11.472656 11.609375 11.878906 11.535156 12.1875 11.28125 C 12.425781 11.027344 12.523438 10.648438 12.632812 10.324219 C 12.832031 9.738281 13.167969 9.34375 13.71875 9.054688 C 14.019531 8.910156 14.332031 8.84375 14.65625 8.78125 C 14.683594 8.773438 14.707031 8.769531 14.734375 8.761719 C 14.847656 8.742188 14.894531 8.738281 14.984375 8.808594 Z M 14.984375 8.808594 "/>
<path style=" stroke:none;fill-rule:nonzero;fill:rgb(0.392157%,14.117648%,21.960784%);fill-opacity:1;" d="M 10.59375 5.75 C 10.613281 5.757812 10.636719 5.761719 10.65625 5.769531 C 11.164062 5.933594 11.625 6.1875 12.03125 6.53125 C 12.046875 6.542969 12.0625 6.558594 12.082031 6.574219 C 12.316406 6.773438 12.519531 6.988281 12.6875 7.25 C 12.6875 7.269531 12.6875 7.292969 12.6875 7.3125 C 12.707031 7.3125 12.722656 7.308594 12.742188 7.308594 C 13.652344 7.28125 14.542969 7.648438 15.222656 8.246094 C 15.421875 8.429688 15.691406 8.71875 15.71875 9 C 15.695312 9.101562 15.667969 9.144531 15.585938 9.214844 C 15.460938 9.265625 15.410156 9.265625 15.28125 9.21875 C 15.1875 9.121094 15.109375 9.015625 15.03125 8.90625 C 14.585938 8.355469 13.96875 8.023438 13.269531 7.917969 C 13.171875 7.90625 13.078125 7.898438 12.980469 7.894531 C 12.945312 7.890625 12.914062 7.886719 12.882812 7.886719 C 12.816406 7.882812 12.753906 7.878906 12.6875 7.875 C 12.515625 7.863281 12.402344 7.851562 12.28125 7.71875 C 12.238281 7.652344 12.238281 7.652344 12.199219 7.578125 C 11.800781 6.890625 11.027344 6.46875 10.28125 6.257812 C 9.445312 6.035156 8.566406 6.253906 7.828125 6.664062 C 7.617188 6.789062 7.429688 6.933594 7.25 7.09375 C 7.222656 7.117188 7.195312 7.140625 7.164062 7.167969 C 6.679688 7.621094 6.328125 8.273438 6.1875 8.921875 C 6.152344 9.042969 6.136719 9.085938 6.03125 9.15625 C 5.960938 9.175781 5.886719 9.1875 5.816406 9.203125 C 5.109375 9.324219 4.542969 9.617188 4.09375 10.1875 C 3.746094 10.695312 3.660156 11.226562 3.742188 11.824219 C 3.777344 12.011719 3.847656 12.175781 3.9375 12.34375 C 3.957031 12.382812 3.957031 12.382812 3.980469 12.421875 C 4.269531 12.941406 4.75 13.3125 5.3125 13.5 C 5.359375 13.503906 5.402344 13.503906 5.449219 13.503906 C 5.476562 13.503906 5.507812 13.503906 5.535156 13.503906 C 5.566406 13.503906 5.597656 13.503906 5.628906 13.503906 C 5.664062 13.503906 5.695312 13.503906 5.730469 13.503906 C 5.839844 13.503906 5.953125 13.503906 6.0625 13.503906 C 6.140625 13.503906 6.222656 13.507812 6.300781 13.507812 C 6.539062 13.507812 6.777344 13.507812 7.019531 13.507812 C 7.128906 13.507812 7.242188 13.507812 7.355469 13.507812 C 7.730469 13.507812 8.105469 13.507812 8.480469 13.507812 C 8.574219 13.507812 8.671875 13.507812 8.769531 13.507812 C 8.792969 13.507812 8.820312 13.507812 8.84375 13.507812 C 9.234375 13.507812 9.625 13.511719 10.015625 13.511719 C 10.417969 13.511719 10.820312 13.511719 11.21875 13.511719 C 11.445312 13.511719 11.671875 13.511719 11.894531 13.515625 C 12.109375 13.515625 12.320312 13.515625 12.53125 13.515625 C 12.609375 13.515625 12.6875 13.515625 12.765625 13.515625 C 13.304688 13.527344 13.304688 13.527344 13.8125 13.375 C 13.847656 13.359375 13.882812 13.347656 13.917969 13.332031 C 14.515625 13.039062 14.921875 12.582031 15.234375 12 C 15.292969 11.921875 15.351562 11.886719 15.4375 11.84375 C 15.546875 11.847656 15.605469 11.863281 15.699219 11.921875 C 15.757812 12.011719 15.773438 12.074219 15.765625 12.175781 C 15.640625 12.761719 15.015625 13.332031 14.53125 13.648438 C 14.429688 13.710938 14.324219 13.769531 14.214844 13.824219 C 14.195312 13.835938 14.175781 13.84375 14.160156 13.855469 C 14.097656 13.886719 14.03125 13.910156 13.96875 13.9375 C 13.933594 13.953125 13.933594 13.953125 13.894531 13.96875 C 13.527344 14.105469 13.140625 14.082031 12.753906 14.078125 C 12.671875 14.078125 12.589844 14.082031 12.507812 14.082031 C 12.3125 14.082031 12.113281 14.082031 11.914062 14.082031 C 11.753906 14.082031 11.589844 14.082031 11.429688 14.082031 C 11.40625 14.082031 11.382812 14.082031 11.359375 14.082031 C 11.3125 14.082031 11.265625 14.082031 11.21875 14.082031 C 10.78125 14.082031 10.34375 14.082031 9.90625 14.082031 C 9.503906 14.082031 9.105469 14.082031 8.703125 14.082031 C 8.292969 14.085938 7.878906 14.085938 7.46875 14.085938 C 7.238281 14.085938 7.007812 14.085938 6.777344 14.085938 C 6.558594 14.085938 6.339844 14.085938 6.125 14.085938 C 6.042969 14.085938 5.964844 14.085938 5.886719 14.085938 C 5.457031 14.089844 5.101562 14.082031 4.71875 13.875 C 4.683594 13.855469 4.648438 13.839844 4.613281 13.820312 C 4.386719 13.699219 4.191406 13.542969 4 13.375 C 3.980469 13.359375 3.960938 13.339844 3.941406 13.324219 C 3.46875 12.886719 3.175781 12.242188 3.144531 11.601562 C 3.121094 10.820312 3.347656 10.175781 3.875 9.59375 C 4.105469 9.351562 4.367188 9.167969 4.65625 9 C 4.695312 8.976562 4.695312 8.976562 4.734375 8.953125 C 5.023438 8.796875 5.363281 8.703125 5.6875 8.65625 C 5.695312 8.628906 5.703125 8.597656 5.710938 8.570312 C 5.855469 8.042969 6.113281 7.542969 6.46875 7.125 C 6.492188 7.097656 6.511719 7.074219 6.535156 7.046875 C 7.113281 6.382812 7.839844 5.941406 8.6875 5.71875 C 8.722656 5.707031 8.757812 5.699219 8.792969 5.6875 C 9.367188 5.546875 10.027344 5.570312 10.59375 5.75 Z M 10.59375 5.75 "/>
<path style=" stroke:none;fill-rule:nonzero;fill:rgb(91.37255%,75.294119%,0.392157%);fill-opacity:1;" d="M 8.277344 5.433594 C 8.34375 5.429688 8.410156 5.425781 8.476562 5.421875 C 8.511719 5.421875 8.511719 5.421875 8.542969 5.417969 C 8.628906 5.417969 8.699219 5.421875 8.769531 5.476562 C 8.839844 5.558594 8.875 5.605469 8.875 5.71875 C 8.84375 5.726562 8.808594 5.730469 8.777344 5.738281 C 8.136719 5.871094 7.523438 6.160156 7.03125 6.59375 C 7.003906 6.617188 6.980469 6.636719 6.953125 6.660156 C 6.382812 7.160156 5.914062 7.828125 5.757812 8.582031 C 5.71875 8.65625 5.71875 8.65625 5.625 8.691406 C 5.582031 8.703125 5.542969 8.710938 5.5 8.71875 C 5.453125 8.730469 5.410156 8.742188 5.363281 8.757812 C 5.339844 8.765625 5.316406 8.769531 5.292969 8.777344 C 4.691406 8.960938 4.1875 9.261719 3.777344 9.742188 C 3.71875 9.8125 3.65625 9.875 3.59375 9.9375 C 3.554688 9.894531 3.519531 9.851562 3.480469 9.804688 C 3.460938 9.78125 3.441406 9.757812 3.417969 9.734375 C 3.375 9.65625 3.375 9.65625 3.375 9.574219 C 3.414062 9.480469 3.460938 9.445312 3.542969 9.382812 C 4.011719 9.03125 4.246094 8.660156 4.417969 8.109375 C 4.582031 7.601562 4.777344 7.316406 5.257812 7.058594 C 5.285156 7.046875 5.3125 7.035156 5.335938 7.019531 C 5.667969 6.84375 5.941406 6.636719 6.226562 6.394531 C 6.851562 5.863281 7.441406 5.488281 8.277344 5.433594 Z M 8.277344 5.433594 "/>
<path style=" stroke:none;fill-rule:nonzero;fill:rgb(0.392157%,14.117648%,21.568628%);fill-opacity:1;" d="M 7.148438 4.21875 C 7.167969 4.222656 7.191406 4.230469 7.21875 4.238281 C 7.550781 4.355469 7.550781 4.355469 7.625 4.5 C 7.640625 4.636719 7.640625 4.699219 7.5625 4.8125 C 7.441406 4.894531 7.394531 4.898438 7.25 4.875 C 7.15625 4.839844 7.066406 4.800781 6.972656 4.757812 C 6.488281 4.558594 5.914062 4.535156 5.40625 4.65625 C 5.371094 4.664062 5.335938 4.671875 5.300781 4.679688 C 4.828125 4.789062 4.417969 5.015625 4.0625 5.34375 C 4.039062 5.363281 4.019531 5.382812 3.996094 5.402344 C 3.515625 5.84375 3.191406 6.546875 3.152344 7.195312 C 3.136719 7.617188 3.179688 7.976562 3.3125 8.375 C 3.34375 8.648438 3.34375 8.648438 3.25 8.769531 C 3.132812 8.824219 3.0625 8.832031 2.9375 8.8125 C 2.8125 8.714844 2.773438 8.597656 2.730469 8.453125 C 2.722656 8.429688 2.71875 8.410156 2.710938 8.390625 C 2.445312 7.503906 2.578125 6.585938 3.003906 5.777344 C 3.148438 5.511719 3.324219 5.285156 3.53125 5.0625 C 3.550781 5.042969 3.566406 5.019531 3.585938 5 C 4.480469 4.03125 5.941406 3.828125 7.148438 4.21875 Z M 7.148438 4.21875 "/>
<path style=" stroke:none;fill-rule:nonzero;fill:rgb(0%,13.333334%,21.960784%);fill-opacity:1;" d="M 1.46875 3 C 1.570312 3.074219 1.65625 3.160156 1.742188 3.25 C 1.765625 3.273438 1.792969 3.296875 1.820312 3.324219 C 1.871094 3.378906 1.925781 3.429688 1.976562 3.484375 C 2.058594 3.566406 2.140625 3.648438 2.222656 3.726562 C 2.273438 3.78125 2.324219 3.832031 2.375 3.882812 C 2.402344 3.90625 2.425781 3.929688 2.449219 3.957031 C 2.636719 4.144531 2.636719 4.144531 2.660156 4.277344 C 2.65625 4.390625 2.632812 4.441406 2.5625 4.53125 C 2.449219 4.605469 2.414062 4.617188 2.28125 4.59375 C 2.226562 4.550781 2.226562 4.550781 2.164062 4.496094 C 2.140625 4.476562 2.121094 4.457031 2.097656 4.4375 C 1.929688 4.28125 1.765625 4.117188 1.601562 3.957031 C 1.554688 3.914062 1.511719 3.867188 1.464844 3.824219 C 1.398438 3.761719 1.332031 3.695312 1.269531 3.632812 C 1.25 3.613281 1.226562 3.59375 1.207031 3.574219 C 1.085938 3.449219 1.03125 3.367188 1.03125 3.1875 C 1.070312 3.097656 1.101562 3.046875 1.179688 2.988281 C 1.285156 2.960938 1.367188 2.964844 1.46875 3 Z M 1.46875 3 "/>
<path style=" stroke:none;fill-rule:nonzero;fill:rgb(0%,13.333334%,21.960784%);fill-opacity:1;" d="M 3.488281 1.914062 C 3.632812 1.957031 3.714844 2.109375 3.78125 2.234375 C 3.804688 2.273438 3.824219 2.3125 3.84375 2.351562 C 3.855469 2.375 3.863281 2.394531 3.875 2.417969 C 3.898438 2.460938 3.921875 2.507812 3.945312 2.550781 C 3.976562 2.621094 4.011719 2.6875 4.046875 2.757812 C 4.070312 2.800781 4.09375 2.84375 4.113281 2.886719 C 4.125 2.910156 4.136719 2.929688 4.148438 2.949219 C 4.222656 3.101562 4.234375 3.210938 4.21875 3.375 C 4.15625 3.46875 4.15625 3.46875 4.0625 3.53125 C 3.9375 3.550781 3.875 3.550781 3.765625 3.480469 C 3.667969 3.386719 3.617188 3.292969 3.554688 3.171875 C 3.542969 3.148438 3.53125 3.125 3.519531 3.101562 C 3.496094 3.054688 3.472656 3.007812 3.449219 2.957031 C 3.414062 2.886719 3.375 2.8125 3.335938 2.738281 C 3.3125 2.691406 3.289062 2.644531 3.265625 2.597656 C 3.253906 2.578125 3.246094 2.554688 3.234375 2.535156 C 3.15625 2.378906 3.132812 2.238281 3.15625 2.0625 C 3.234375 1.921875 3.339844 1.921875 3.488281 1.914062 Z M 3.488281 1.914062 "/>
<path style=" stroke:none;fill-rule:nonzero;fill:rgb(0%,13.333334%,21.568628%);fill-opacity:1;" d="M 0.4375 5.113281 C 0.503906 5.144531 0.574219 5.179688 0.640625 5.210938 C 0.664062 5.222656 0.6875 5.238281 0.714844 5.25 C 0.765625 5.273438 0.816406 5.300781 0.867188 5.328125 C 0.945312 5.367188 1.023438 5.40625 1.101562 5.445312 C 1.152344 5.46875 1.203125 5.496094 1.253906 5.519531 C 1.277344 5.53125 1.300781 5.542969 1.324219 5.554688 C 1.53125 5.664062 1.53125 5.664062 1.59375 5.78125 C 1.613281 5.917969 1.609375 5.976562 1.53125 6.09375 C 1.414062 6.171875 1.324219 6.175781 1.1875 6.15625 C 1.09375 6.125 1.007812 6.082031 0.917969 6.035156 C 0.894531 6.023438 0.871094 6.011719 0.84375 6 C 0.792969 5.972656 0.742188 5.949219 0.691406 5.921875 C 0.613281 5.878906 0.535156 5.839844 0.457031 5.800781 C 0.40625 5.777344 0.355469 5.75 0.304688 5.726562 C 0.28125 5.714844 0.257812 5.703125 0.234375 5.691406 C 0.128906 5.636719 0.0664062 5.601562 0 5.5 C -0.015625 5.402344 -0.015625 5.316406 0 5.21875 C 0.117188 5.074219 0.261719 5.054688 0.4375 5.113281 Z M 0.4375 5.113281 "/>
<path style=" stroke:none;fill-rule:nonzero;fill:rgb(0%,13.333334%,21.568628%);fill-opacity:1;" d="M 1.0625 7.175781 C 1.105469 7.175781 1.105469 7.175781 1.152344 7.171875 C 1.382812 7.171875 1.382812 7.171875 1.503906 7.246094 C 1.574219 7.328125 1.59375 7.355469 1.601562 7.464844 C 1.59375 7.5625 1.585938 7.609375 1.53125 7.6875 C 1.382812 7.78125 1.21875 7.761719 1.046875 7.761719 C 1 7.761719 1 7.761719 0.949219 7.765625 C 0.714844 7.765625 0.714844 7.765625 0.589844 7.695312 C 0.507812 7.597656 0.5 7.53125 0.5 7.40625 C 0.539062 7.316406 0.566406 7.265625 0.648438 7.214844 C 0.78125 7.164062 0.921875 7.175781 1.0625 7.175781 Z M 1.0625 7.175781 "/>
<path style=" stroke:none;fill-rule:nonzero;fill:rgb(0%,13.333334%,21.568628%);fill-opacity:1;" d="M 6.1875 1.9375 C 6.261719 1.996094 6.300781 2.039062 6.34375 2.125 C 6.351562 2.238281 6.347656 2.351562 6.351562 2.464844 C 6.351562 2.496094 6.351562 2.527344 6.351562 2.558594 C 6.351562 2.605469 6.351562 2.605469 6.351562 2.652344 C 6.351562 2.679688 6.351562 2.707031 6.351562 2.734375 C 6.34375 2.820312 6.328125 2.867188 6.28125 2.9375 C 6.183594 3.003906 6.121094 3.011719 6.003906 3.015625 C 5.890625 2.988281 5.851562 2.941406 5.78125 2.84375 C 5.757812 2.71875 5.757812 2.597656 5.761719 2.46875 C 5.761719 2.433594 5.761719 2.402344 5.761719 2.367188 C 5.761719 2.121094 5.761719 2.121094 5.851562 1.992188 C 5.980469 1.910156 6.035156 1.914062 6.1875 1.9375 Z M 6.1875 1.9375 "/>
<path style=" stroke:none;fill-rule:nonzero;fill:rgb(0.784314%,14.509805%,23.137255%);fill-opacity:1;" d="M 15.9375 10.25 C 16.015625 10.367188 16.023438 10.460938 16 10.59375 C 15.9375 10.6875 15.9375 10.6875 15.84375 10.75 C 15.730469 10.761719 15.632812 10.742188 15.53125 10.6875 C 15.476562 10.585938 15.457031 10.488281 15.46875 10.375 C 15.535156 10.285156 15.585938 10.238281 15.6875 10.1875 C 15.78125 10.1875 15.851562 10.210938 15.9375 10.25 Z M 15.9375 10.25 "/>
</g>
</svg>
