<?xml version="1.0" encoding="UTF-8"?>
<svg xmlns="http://www.w3.org/2000/svg" xmlns:xlink="http://www.w3.org/1999/xlink" width="16px" height="16px" viewBox="0 0 16 16" version="1.1">
<g id="surface1">
<path style=" stroke:none;fill-rule:nonzero;fill:rgb(99.607843%,83.137256%,2.745098%);fill-opacity:1;" d="M 9.125 3.1875 C 9.148438 3.195312 9.175781 3.199219 9.199219 3.207031 C 10.433594 3.523438 11.511719 4.289062 12.175781 5.382812 C 12.222656 5.464844 12.269531 5.542969 12.3125 5.625 C 12.324219 5.644531 12.335938 5.664062 12.347656 5.683594 C 12.921875 6.746094 13.09375 8.082031 12.78125 9.25 C 12.773438 9.277344 12.765625 9.304688 12.761719 9.332031 C 12.628906 9.800781 12.40625 10.539062 12 10.84375 C 11.933594 10.847656 11.933594 10.847656 11.867188 10.835938 C 11.792969 10.824219 11.792969 10.824219 11.71875 10.84375 C 11.597656 10.945312 11.503906 11.0625 11.40625 11.1875 C 11.1875 11.460938 10.914062 11.679688 10.625 11.875 C 10.605469 11.875 10.582031 11.875 10.5625 11.875 C 10.5625 11.914062 10.558594 11.953125 10.554688 11.992188 C 10.542969 12.09375 10.535156 12.121094 10.460938 12.203125 C 10.339844 12.269531 10.25 12.269531 10.117188 12.230469 C 10 12.214844 9.929688 12.253906 9.820312 12.300781 C 9.347656 12.5 8.800781 12.675781 8.28125 12.65625 C 8.273438 12.6875 8.265625 12.714844 8.257812 12.746094 C 8.21875 12.84375 8.21875 12.84375 8.125 12.90625 C 8.027344 12.921875 7.925781 12.917969 7.828125 12.914062 C 7.796875 12.914062 7.765625 12.914062 7.738281 12.914062 C 6.539062 12.894531 5.421875 12.34375 4.5625 11.53125 C 4.539062 11.507812 4.511719 11.484375 4.488281 11.460938 C 3.820312 10.824219 3.414062 9.976562 3.1875 9.09375 C 3.183594 9.070312 3.175781 9.050781 3.171875 9.027344 C 3.007812 8.378906 3.019531 7.550781 3.1875 6.90625 C 3.195312 6.882812 3.199219 6.855469 3.207031 6.832031 C 3.4375 5.957031 3.847656 5.21875 4.46875 4.5625 C 4.492188 4.539062 4.515625 4.511719 4.539062 4.488281 C 5.175781 3.820312 6.023438 3.414062 6.90625 3.1875 C 6.929688 3.183594 6.949219 3.175781 6.972656 3.171875 C 7.632812 3.007812 8.46875 3.023438 9.125 3.1875 Z M 9.125 3.1875 "/>
<path style=" stroke:none;fill-rule:nonzero;fill:rgb(0.392157%,14.117648%,21.568628%);fill-opacity:1;" d="M 9.125 3.1875 C 9.148438 3.195312 9.175781 3.199219 9.199219 3.207031 C 10.433594 3.523438 11.511719 4.289062 12.175781 5.382812 C 12.222656 5.464844 12.269531 5.542969 12.3125 5.625 C 12.324219 5.644531 12.335938 5.664062 12.347656 5.683594 C 12.921875 6.746094 13.09375 8.082031 12.78125 9.25 C 12.773438 9.277344 12.765625 9.304688 12.761719 9.332031 C 12.625 9.820312 12.402344 10.511719 12 10.84375 C 11.90625 10.871094 11.839844 10.875 11.75 10.84375 C 11.65625 10.765625 11.65625 10.765625 11.59375 10.65625 C 11.601562 10.488281 11.644531 10.386719 11.738281 10.25 C 12.316406 9.367188 12.492188 8.207031 12.296875 7.175781 C 12.28125 7.101562 12.261719 7.03125 12.242188 6.960938 C 12.238281 6.933594 12.230469 6.910156 12.222656 6.882812 C 11.917969 5.796875 11.226562 4.804688 10.242188 4.242188 C 9.527344 3.84375 8.828125 3.640625 8.007812 3.640625 C 7.984375 3.640625 7.960938 3.640625 7.9375 3.640625 C 6.917969 3.644531 5.964844 4 5.1875 4.65625 C 5.171875 4.667969 5.15625 4.683594 5.140625 4.695312 C 4.398438 5.332031 3.925781 6.171875 3.71875 7.125 C 3.714844 7.148438 3.707031 7.175781 3.699219 7.199219 C 3.648438 7.441406 3.644531 7.679688 3.644531 7.921875 C 3.644531 7.992188 3.644531 8.058594 3.644531 8.128906 C 3.644531 8.429688 3.679688 8.707031 3.75 9 C 3.757812 9.03125 3.761719 9.058594 3.769531 9.089844 C 4.015625 10.148438 4.726562 11.097656 5.640625 11.679688 C 5.855469 11.8125 6.082031 11.925781 6.3125 12.03125 C 6.359375 12.054688 6.359375 12.054688 6.40625 12.074219 C 6.859375 12.269531 7.382812 12.367188 7.871094 12.359375 C 7.996094 12.359375 8.074219 12.371094 8.171875 12.449219 C 8.261719 12.542969 8.285156 12.585938 8.28125 12.71875 C 8.214844 12.863281 8.214844 12.863281 8.125 12.90625 C 6.964844 13.007812 5.757812 12.550781 4.875 11.8125 C 4.769531 11.722656 4.664062 11.628906 4.5625 11.53125 C 4.539062 11.507812 4.511719 11.484375 4.488281 11.460938 C 3.820312 10.824219 3.414062 9.976562 3.1875 9.09375 C 3.183594 9.070312 3.175781 9.050781 3.171875 9.027344 C 3.007812 8.378906 3.019531 7.550781 3.1875 6.90625 C 3.195312 6.882812 3.199219 6.855469 3.207031 6.832031 C 3.4375 5.957031 3.847656 5.21875 4.46875 4.5625 C 4.492188 4.539062 4.515625 4.511719 4.539062 4.488281 C 5.175781 3.820312 6.023438 3.414062 6.90625 3.1875 C 6.929688 3.183594 6.949219 3.175781 6.972656 3.171875 C 7.632812 3.007812 8.46875 3.023438 9.125 3.1875 Z M 9.125 3.1875 "/>
<path style=" stroke:none;fill-rule:nonzero;fill:rgb(0%,13.725491%,21.960784%);fill-opacity:1;" d="M 12.632812 12.351562 C 12.753906 12.375 12.78125 12.390625 12.867188 12.46875 C 12.886719 12.488281 12.910156 12.511719 12.933594 12.53125 C 13.042969 12.632812 13.148438 12.738281 13.253906 12.84375 C 13.277344 12.867188 13.300781 12.890625 13.328125 12.917969 C 13.40625 12.996094 13.484375 13.074219 13.5625 13.152344 C 13.617188 13.207031 13.671875 13.261719 13.726562 13.316406 C 13.84375 13.433594 13.957031 13.546875 14.070312 13.660156 C 14.191406 13.78125 14.308594 13.898438 14.425781 14.015625 C 14.566406 14.15625 14.710938 14.300781 14.851562 14.441406 C 14.90625 14.496094 14.960938 14.550781 15.015625 14.605469 C 15.089844 14.679688 15.167969 14.757812 15.242188 14.832031 C 15.265625 14.855469 15.289062 14.878906 15.3125 14.902344 C 15.332031 14.921875 15.351562 14.941406 15.371094 14.960938 C 15.390625 14.980469 15.410156 15 15.425781 15.015625 C 15.488281 15.085938 15.5 15.121094 15.507812 15.214844 C 15.5 15.3125 15.492188 15.359375 15.4375 15.4375 C 15.367188 15.488281 15.308594 15.5 15.226562 15.515625 C 14.988281 15.476562 14.785156 15.199219 14.621094 15.03125 C 14.585938 14.996094 14.585938 14.996094 14.546875 14.957031 C 14.46875 14.878906 14.390625 14.800781 14.3125 14.722656 C 14.257812 14.667969 14.203125 14.613281 14.148438 14.558594 C 14.03125 14.441406 13.917969 14.328125 13.804688 14.214844 C 13.683594 14.09375 13.566406 13.976562 13.449219 13.859375 C 13.308594 13.71875 13.164062 13.574219 13.023438 13.433594 C 12.96875 13.378906 12.914062 13.324219 12.859375 13.269531 C 12.785156 13.195312 12.707031 13.117188 12.632812 13.042969 C 12.609375 13.019531 12.585938 12.996094 12.5625 12.972656 C 12.542969 12.953125 12.523438 12.933594 12.503906 12.914062 C 12.476562 12.886719 12.476562 12.886719 12.449219 12.859375 C 12.382812 12.785156 12.375 12.746094 12.363281 12.648438 C 12.375 12.53125 12.375 12.53125 12.4375 12.4375 C 12.53125 12.375 12.53125 12.375 12.632812 12.351562 Z M 12.632812 12.351562 "/>
<path style=" stroke:none;fill-rule:nonzero;fill:rgb(0%,13.333334%,21.960784%);fill-opacity:1;" d="M 3.46875 12.375 C 3.582031 12.453125 3.617188 12.5 3.648438 12.632812 C 3.625 12.753906 3.609375 12.78125 3.53125 12.867188 C 3.511719 12.886719 3.488281 12.910156 3.46875 12.933594 C 3.367188 13.042969 3.261719 13.148438 3.15625 13.253906 C 3.132812 13.277344 3.109375 13.300781 3.082031 13.328125 C 3.003906 13.40625 2.925781 13.484375 2.847656 13.5625 C 2.792969 13.617188 2.738281 13.671875 2.683594 13.726562 C 2.566406 13.84375 2.453125 13.957031 2.339844 14.070312 C 2.21875 14.191406 2.101562 14.308594 1.984375 14.425781 C 1.84375 14.566406 1.699219 14.710938 1.558594 14.851562 C 1.503906 14.90625 1.449219 14.960938 1.394531 15.015625 C 1.320312 15.089844 1.242188 15.167969 1.167969 15.242188 C 1.144531 15.265625 1.121094 15.289062 1.097656 15.3125 C 1.070312 15.339844 1.070312 15.339844 1.039062 15.371094 C 1.019531 15.390625 1 15.410156 0.984375 15.425781 C 0.914062 15.488281 0.878906 15.5 0.785156 15.507812 C 0.6875 15.5 0.640625 15.492188 0.5625 15.4375 C 0.511719 15.367188 0.5 15.308594 0.484375 15.226562 C 0.523438 14.988281 0.800781 14.785156 0.96875 14.621094 C 1.003906 14.585938 1.003906 14.585938 1.042969 14.546875 C 1.121094 14.46875 1.199219 14.390625 1.277344 14.3125 C 1.332031 14.257812 1.386719 14.203125 1.441406 14.148438 C 1.558594 14.03125 1.671875 13.917969 1.785156 13.804688 C 1.90625 13.683594 2.023438 13.566406 2.140625 13.449219 C 2.28125 13.308594 2.425781 13.164062 2.566406 13.023438 C 2.621094 12.96875 2.675781 12.914062 2.730469 12.859375 C 2.804688 12.785156 2.882812 12.707031 2.957031 12.632812 C 2.980469 12.609375 3.003906 12.585938 3.027344 12.5625 C 3.046875 12.542969 3.066406 12.523438 3.085938 12.503906 C 3.105469 12.484375 3.125 12.464844 3.140625 12.449219 C 3.242188 12.355469 3.335938 12.363281 3.46875 12.375 Z M 3.46875 12.375 "/>
<path style=" stroke:none;fill-rule:nonzero;fill:rgb(0%,13.333334%,21.960784%);fill-opacity:1;" d="M 15.3125 0.5 C 15.394531 0.527344 15.425781 0.546875 15.476562 0.617188 C 15.507812 0.714844 15.519531 0.769531 15.5 0.875 C 15.363281 1.058594 15.191406 1.21875 15.03125 1.378906 C 15.007812 1.402344 14.984375 1.425781 14.957031 1.453125 C 14.878906 1.53125 14.800781 1.609375 14.722656 1.6875 C 14.667969 1.742188 14.613281 1.796875 14.558594 1.851562 C 14.441406 1.96875 14.328125 2.082031 14.214844 2.195312 C 14.09375 2.316406 13.976562 2.433594 13.859375 2.550781 C 13.71875 2.691406 13.574219 2.835938 13.433594 2.976562 C 13.378906 3.03125 13.324219 3.085938 13.269531 3.140625 C 13.195312 3.214844 13.117188 3.292969 13.042969 3.367188 C 13.019531 3.390625 12.996094 3.414062 12.972656 3.4375 C 12.945312 3.464844 12.945312 3.464844 12.914062 3.496094 C 12.894531 3.515625 12.875 3.535156 12.859375 3.550781 C 12.785156 3.617188 12.746094 3.625 12.648438 3.636719 C 12.53125 3.625 12.53125 3.625 12.4375 3.5625 C 12.375 3.46875 12.375 3.46875 12.351562 3.367188 C 12.375 3.246094 12.390625 3.21875 12.46875 3.132812 C 12.488281 3.113281 12.511719 3.089844 12.53125 3.066406 C 12.632812 2.957031 12.738281 2.851562 12.84375 2.746094 C 12.878906 2.710938 12.878906 2.710938 12.917969 2.671875 C 12.996094 2.59375 13.074219 2.515625 13.152344 2.4375 C 13.207031 2.382812 13.261719 2.328125 13.316406 2.273438 C 13.433594 2.15625 13.546875 2.042969 13.660156 1.929688 C 13.78125 1.808594 13.898438 1.691406 14.015625 1.574219 C 14.15625 1.433594 14.300781 1.289062 14.441406 1.148438 C 14.496094 1.09375 14.550781 1.039062 14.605469 0.984375 C 14.679688 0.910156 14.757812 0.832031 14.832031 0.757812 C 14.855469 0.734375 14.878906 0.710938 14.902344 0.6875 C 14.921875 0.667969 14.941406 0.648438 14.960938 0.628906 C 14.980469 0.609375 15 0.589844 15.015625 0.574219 C 15.109375 0.488281 15.1875 0.492188 15.3125 0.5 Z M 15.3125 0.5 "/>
<path style=" stroke:none;fill-rule:nonzero;fill:rgb(0%,13.333334%,21.960784%);fill-opacity:1;" d="M 0.875 0.5 C 1.058594 0.636719 1.21875 0.808594 1.378906 0.96875 C 1.402344 0.992188 1.425781 1.015625 1.453125 1.042969 C 1.53125 1.121094 1.609375 1.199219 1.6875 1.277344 C 1.742188 1.332031 1.796875 1.386719 1.851562 1.441406 C 1.96875 1.558594 2.082031 1.671875 2.195312 1.785156 C 2.316406 1.90625 2.433594 2.023438 2.550781 2.140625 C 2.691406 2.28125 2.835938 2.425781 2.976562 2.566406 C 3.03125 2.621094 3.085938 2.675781 3.140625 2.730469 C 3.214844 2.804688 3.292969 2.882812 3.367188 2.957031 C 3.390625 2.980469 3.414062 3.003906 3.4375 3.027344 C 3.457031 3.046875 3.476562 3.066406 3.496094 3.085938 C 3.515625 3.105469 3.535156 3.125 3.550781 3.140625 C 3.617188 3.214844 3.625 3.253906 3.636719 3.351562 C 3.625 3.46875 3.625 3.46875 3.5625 3.5625 C 3.46875 3.625 3.46875 3.625 3.367188 3.648438 C 3.246094 3.625 3.21875 3.609375 3.132812 3.53125 C 3.113281 3.511719 3.089844 3.488281 3.066406 3.46875 C 2.957031 3.367188 2.851562 3.261719 2.746094 3.15625 C 2.710938 3.121094 2.710938 3.121094 2.671875 3.082031 C 2.59375 3.003906 2.515625 2.925781 2.4375 2.847656 C 2.382812 2.792969 2.328125 2.738281 2.273438 2.683594 C 2.15625 2.566406 2.042969 2.453125 1.929688 2.339844 C 1.808594 2.21875 1.691406 2.101562 1.574219 1.984375 C 1.433594 1.84375 1.289062 1.699219 1.148438 1.558594 C 1.09375 1.503906 1.039062 1.449219 0.984375 1.394531 C 0.910156 1.320312 0.832031 1.242188 0.757812 1.167969 C 0.734375 1.144531 0.710938 1.121094 0.6875 1.097656 C 0.667969 1.078125 0.648438 1.058594 0.628906 1.039062 C 0.601562 1.011719 0.601562 1.011719 0.574219 0.984375 C 0.511719 0.914062 0.5 0.878906 0.492188 0.785156 C 0.5 0.6875 0.507812 0.640625 0.5625 0.5625 C 0.664062 0.488281 0.753906 0.480469 0.875 0.5 Z M 0.875 0.5 "/>
<path style=" stroke:none;fill-rule:nonzero;fill:rgb(0%,13.333334%,21.568628%);fill-opacity:1;" d="M 0.351562 7.714844 C 0.402344 7.714844 0.402344 7.714844 0.453125 7.710938 C 0.488281 7.710938 0.523438 7.710938 0.558594 7.710938 C 0.597656 7.710938 0.632812 7.710938 0.671875 7.710938 C 0.75 7.710938 0.828125 7.710938 0.90625 7.710938 C 1.027344 7.710938 1.144531 7.710938 1.265625 7.707031 C 1.34375 7.707031 1.417969 7.707031 1.492188 7.707031 C 1.546875 7.707031 1.546875 7.707031 1.601562 7.707031 C 1.636719 7.707031 1.667969 7.707031 1.703125 7.707031 C 1.734375 7.707031 1.761719 7.707031 1.792969 7.707031 C 1.894531 7.722656 1.949219 7.753906 2.03125 7.8125 C 2.089844 7.941406 2.105469 8 2.058594 8.132812 C 1.996094 8.222656 1.972656 8.242188 1.875 8.28125 C 1.796875 8.289062 1.796875 8.289062 1.707031 8.289062 C 1.660156 8.289062 1.660156 8.289062 1.609375 8.289062 C 1.570312 8.289062 1.535156 8.289062 1.5 8.289062 C 1.460938 8.289062 1.425781 8.289062 1.386719 8.292969 C 1.308594 8.292969 1.230469 8.292969 1.152344 8.292969 C 1.035156 8.292969 0.914062 8.292969 0.796875 8.292969 C 0.71875 8.292969 0.644531 8.292969 0.566406 8.292969 C 0.53125 8.292969 0.496094 8.292969 0.460938 8.292969 C 0.425781 8.292969 0.390625 8.292969 0.359375 8.292969 C 0.3125 8.292969 0.3125 8.292969 0.269531 8.292969 C 0.171875 8.277344 0.113281 8.246094 0.03125 8.1875 C -0.0195312 8.089844 -0.0117188 7.984375 0 7.875 C 0.0820312 7.722656 0.1875 7.714844 0.351562 7.714844 Z M 0.351562 7.714844 "/>
<path style=" stroke:none;fill-rule:nonzero;fill:rgb(0%,13.333334%,21.568628%);fill-opacity:1;" d="M 14.292969 7.710938 C 14.324219 7.710938 14.359375 7.710938 14.390625 7.710938 C 14.429688 7.710938 14.464844 7.710938 14.5 7.710938 C 14.539062 7.710938 14.574219 7.710938 14.613281 7.707031 C 14.691406 7.707031 14.769531 7.707031 14.847656 7.707031 C 14.964844 7.707031 15.085938 7.707031 15.203125 7.707031 C 15.28125 7.707031 15.355469 7.707031 15.433594 7.707031 C 15.46875 7.707031 15.503906 7.707031 15.539062 7.707031 C 15.574219 7.707031 15.609375 7.707031 15.640625 7.707031 C 15.6875 7.707031 15.6875 7.707031 15.730469 7.707031 C 15.828125 7.722656 15.886719 7.753906 15.96875 7.8125 C 16.019531 7.914062 16.015625 8.015625 16 8.125 C 15.941406 8.199219 15.898438 8.238281 15.8125 8.28125 C 15.757812 8.285156 15.707031 8.285156 15.652344 8.285156 C 15.621094 8.285156 15.585938 8.285156 15.550781 8.289062 C 15.515625 8.289062 15.480469 8.289062 15.441406 8.289062 C 15.40625 8.289062 15.367188 8.289062 15.332031 8.289062 C 15.253906 8.289062 15.171875 8.289062 15.09375 8.289062 C 14.976562 8.289062 14.855469 8.289062 14.734375 8.289062 C 14.660156 8.292969 14.582031 8.292969 14.507812 8.292969 C 14.472656 8.292969 14.433594 8.292969 14.398438 8.292969 C 14.363281 8.292969 14.332031 8.292969 14.296875 8.292969 C 14.265625 8.292969 14.238281 8.292969 14.207031 8.292969 C 14.105469 8.277344 14.050781 8.246094 13.96875 8.1875 C 13.910156 8.058594 13.894531 8 13.941406 7.863281 C 14.039062 7.726562 14.128906 7.710938 14.292969 7.710938 Z M 14.292969 7.710938 "/>
<path style=" stroke:none;fill-rule:nonzero;fill:rgb(0%,13.725491%,21.568628%);fill-opacity:1;" d="M 10.71875 13.90625 C 10.84375 14.007812 10.902344 14.128906 10.972656 14.269531 C 10.988281 14.304688 10.988281 14.304688 11.007812 14.339844 C 11.03125 14.386719 11.054688 14.4375 11.082031 14.484375 C 11.117188 14.558594 11.15625 14.632812 11.191406 14.707031 C 11.214844 14.753906 11.238281 14.800781 11.261719 14.847656 C 11.28125 14.878906 11.28125 14.878906 11.296875 14.914062 C 11.359375 15.039062 11.394531 15.136719 11.375 15.28125 C 11.320312 15.367188 11.277344 15.421875 11.1875 15.46875 C 11.078125 15.480469 11.019531 15.480469 10.925781 15.421875 C 10.824219 15.324219 10.773438 15.230469 10.710938 15.105469 C 10.695312 15.074219 10.695312 15.074219 10.675781 15.039062 C 10.652344 14.988281 10.628906 14.941406 10.605469 14.890625 C 10.570312 14.820312 10.53125 14.746094 10.492188 14.671875 C 10.46875 14.625 10.445312 14.578125 10.421875 14.53125 C 10.410156 14.507812 10.402344 14.488281 10.390625 14.464844 C 10.320312 14.324219 10.296875 14.21875 10.3125 14.0625 C 10.421875 13.886719 10.519531 13.851562 10.71875 13.90625 Z M 10.71875 13.90625 "/>
<path style=" stroke:none;fill-rule:nonzero;fill:rgb(0%,13.725491%,21.568628%);fill-opacity:1;" d="M 5.5625 13.90625 C 5.65625 13.988281 5.683594 14.035156 5.699219 14.160156 C 5.683594 14.304688 5.640625 14.402344 5.578125 14.53125 C 5.558594 14.566406 5.558594 14.566406 5.542969 14.601562 C 5.519531 14.648438 5.492188 14.695312 5.46875 14.746094 C 5.433594 14.816406 5.394531 14.890625 5.359375 14.964844 C 5.335938 15.011719 5.3125 15.058594 5.289062 15.105469 C 5.277344 15.128906 5.265625 15.152344 5.253906 15.171875 C 5.1875 15.300781 5.125 15.386719 5 15.46875 C 4.875 15.488281 4.828125 15.480469 4.726562 15.410156 C 4.644531 15.335938 4.628906 15.304688 4.617188 15.199219 C 4.628906 15.0625 4.675781 14.96875 4.738281 14.847656 C 4.75 14.824219 4.761719 14.800781 4.773438 14.777344 C 4.796875 14.730469 4.820312 14.679688 4.84375 14.632812 C 4.882812 14.558594 4.917969 14.484375 4.957031 14.410156 C 4.980469 14.363281 5.003906 14.316406 5.027344 14.269531 C 5.039062 14.246094 5.050781 14.226562 5.0625 14.203125 C 5.175781 13.980469 5.289062 13.828125 5.5625 13.90625 Z M 5.5625 13.90625 "/>
<path style=" stroke:none;fill-rule:nonzero;fill:rgb(0%,13.725491%,21.568628%);fill-opacity:1;" d="M 5 0.53125 C 5.148438 0.625 5.210938 0.738281 5.289062 0.894531 C 5.300781 0.917969 5.3125 0.9375 5.324219 0.960938 C 5.347656 1.011719 5.371094 1.058594 5.394531 1.109375 C 5.429688 1.179688 5.46875 1.253906 5.507812 1.328125 C 5.53125 1.375 5.554688 1.421875 5.578125 1.46875 C 5.589844 1.492188 5.597656 1.511719 5.609375 1.535156 C 5.679688 1.675781 5.703125 1.78125 5.6875 1.9375 C 5.625 2.046875 5.589844 2.085938 5.46875 2.125 C 5.363281 2.125 5.3125 2.109375 5.21875 2.0625 C 5.171875 1.996094 5.171875 1.996094 5.128906 1.914062 C 5.113281 1.882812 5.097656 1.855469 5.082031 1.824219 C 5.066406 1.792969 5.050781 1.757812 5.035156 1.726562 C 5.019531 1.695312 5.003906 1.660156 4.984375 1.628906 C 4.953125 1.5625 4.921875 1.5 4.886719 1.433594 C 4.851562 1.355469 4.8125 1.28125 4.769531 1.207031 C 4.761719 1.1875 4.75 1.167969 4.738281 1.144531 C 4.714844 1.09375 4.6875 1.046875 4.660156 0.996094 C 4.621094 0.894531 4.613281 0.824219 4.625 0.71875 C 4.734375 0.558594 4.804688 0.511719 5 0.53125 Z M 5 0.53125 "/>
<path style=" stroke:none;fill-rule:nonzero;fill:rgb(0%,13.725491%,21.960784%);fill-opacity:1;" d="M 11.1875 0.53125 C 11.273438 0.585938 11.328125 0.628906 11.375 0.71875 C 11.394531 0.890625 11.339844 1.003906 11.261719 1.152344 C 11.25 1.175781 11.238281 1.199219 11.226562 1.222656 C 11.203125 1.269531 11.179688 1.320312 11.15625 1.367188 C 11.117188 1.441406 11.082031 1.515625 11.042969 1.589844 C 11.019531 1.636719 10.996094 1.683594 10.972656 1.730469 C 10.957031 1.765625 10.957031 1.765625 10.9375 1.796875 C 10.878906 1.914062 10.820312 2.007812 10.71875 2.09375 C 10.605469 2.128906 10.554688 2.136719 10.445312 2.085938 C 10.375 2.03125 10.375 2.03125 10.3125 1.9375 C 10.292969 1.75 10.339844 1.628906 10.421875 1.46875 C 10.433594 1.445312 10.445312 1.421875 10.457031 1.398438 C 10.480469 1.351562 10.507812 1.304688 10.53125 1.253906 C 10.566406 1.183594 10.605469 1.109375 10.640625 1.035156 C 10.664062 0.988281 10.6875 0.941406 10.710938 0.894531 C 10.722656 0.871094 10.734375 0.847656 10.746094 0.828125 C 10.84375 0.636719 10.953125 0.492188 11.1875 0.53125 Z M 11.1875 0.53125 "/>
<path style=" stroke:none;fill-rule:nonzero;fill:rgb(0%,13.333334%,21.568628%);fill-opacity:1;" d="M 8.125 0 C 8.199219 0.0585938 8.238281 0.101562 8.28125 0.1875 C 8.285156 0.273438 8.289062 0.359375 8.289062 0.449219 C 8.289062 0.472656 8.289062 0.5 8.289062 0.527344 C 8.289062 0.582031 8.289062 0.636719 8.289062 0.691406 C 8.289062 0.773438 8.292969 0.859375 8.292969 0.941406 C 8.292969 0.996094 8.292969 1.050781 8.292969 1.101562 C 8.296875 1.128906 8.296875 1.152344 8.296875 1.179688 C 8.296875 1.300781 8.289062 1.359375 8.222656 1.46875 C 8.144531 1.542969 8.113281 1.558594 8.007812 1.570312 C 7.882812 1.558594 7.835938 1.523438 7.75 1.4375 C 7.699219 1.335938 7.714844 1.226562 7.710938 1.113281 C 7.710938 1.089844 7.710938 1.0625 7.710938 1.035156 C 7.710938 0.980469 7.710938 0.925781 7.710938 0.871094 C 7.710938 0.789062 7.710938 0.703125 7.710938 0.621094 C 7.707031 0.566406 7.707031 0.511719 7.707031 0.460938 C 7.707031 0.433594 7.707031 0.410156 7.707031 0.382812 C 7.707031 0.242188 7.71875 0.148438 7.8125 0.03125 C 7.914062 -0.0195312 8.015625 -0.015625 8.125 0 Z M 8.125 0 "/>
<path style=" stroke:none;fill-rule:nonzero;fill:rgb(0%,13.333334%,21.568628%);fill-opacity:1;" d="M 8.09375 14.4375 C 8.179688 14.492188 8.234375 14.535156 8.28125 14.625 C 8.285156 14.710938 8.289062 14.796875 8.289062 14.886719 C 8.289062 14.910156 8.289062 14.9375 8.289062 14.964844 C 8.289062 15.019531 8.289062 15.074219 8.289062 15.128906 C 8.289062 15.210938 8.289062 15.296875 8.289062 15.378906 C 8.292969 15.433594 8.292969 15.488281 8.292969 15.539062 C 8.292969 15.566406 8.292969 15.589844 8.292969 15.617188 C 8.292969 15.757812 8.28125 15.851562 8.1875 15.96875 C 8.085938 16.019531 7.984375 16.015625 7.875 16 C 7.800781 15.941406 7.761719 15.898438 7.71875 15.8125 C 7.714844 15.726562 7.710938 15.640625 7.710938 15.550781 C 7.710938 15.527344 7.710938 15.5 7.710938 15.472656 C 7.710938 15.417969 7.710938 15.363281 7.710938 15.308594 C 7.710938 15.226562 7.707031 15.140625 7.707031 15.058594 C 7.707031 15.003906 7.707031 14.949219 7.707031 14.898438 C 7.703125 14.871094 7.703125 14.847656 7.703125 14.820312 C 7.703125 14.699219 7.710938 14.640625 7.777344 14.53125 C 7.882812 14.429688 7.949219 14.421875 8.09375 14.4375 Z M 8.09375 14.4375 "/>
<path style=" stroke:none;fill-rule:nonzero;fill:rgb(0%,13.333334%,21.568628%);fill-opacity:1;" d="M 0.9375 10.292969 C 0.980469 10.292969 0.980469 10.292969 1.023438 10.292969 C 1.078125 10.292969 1.136719 10.292969 1.195312 10.292969 C 1.28125 10.292969 1.367188 10.292969 1.457031 10.292969 C 1.511719 10.292969 1.566406 10.292969 1.625 10.292969 C 1.664062 10.292969 1.664062 10.292969 1.703125 10.292969 C 1.828125 10.296875 1.890625 10.304688 2 10.371094 C 2.082031 10.457031 2.09375 10.507812 2.09375 10.625 C 2.050781 10.714844 2.007812 10.773438 1.9375 10.84375 C 1.84375 10.851562 1.75 10.855469 1.65625 10.855469 C 1.628906 10.855469 1.601562 10.855469 1.570312 10.855469 C 1.511719 10.855469 1.453125 10.855469 1.394531 10.855469 C 1.304688 10.855469 1.214844 10.859375 1.121094 10.859375 C 1.066406 10.859375 1.007812 10.859375 0.949219 10.859375 C 0.921875 10.863281 0.894531 10.863281 0.867188 10.863281 C 0.730469 10.863281 0.671875 10.855469 0.5625 10.769531 C 0.5 10.6875 0.5 10.6875 0.480469 10.578125 C 0.527344 10.3125 0.707031 10.289062 0.9375 10.292969 Z M 0.9375 10.292969 "/>
<path style=" stroke:none;fill-rule:nonzero;fill:rgb(0%,13.333334%,21.568628%);fill-opacity:1;" d="M 14.375 10.300781 C 14.414062 10.300781 14.414062 10.300781 14.457031 10.300781 C 14.515625 10.300781 14.574219 10.300781 14.628906 10.300781 C 14.71875 10.300781 14.804688 10.300781 14.894531 10.300781 C 14.949219 10.300781 15.007812 10.300781 15.0625 10.300781 C 15.089844 10.300781 15.113281 10.300781 15.140625 10.300781 C 15.253906 10.300781 15.324219 10.300781 15.421875 10.355469 C 15.480469 10.417969 15.492188 10.457031 15.5 10.542969 C 15.503906 10.566406 15.507812 10.589844 15.511719 10.613281 C 15.492188 10.730469 15.4375 10.769531 15.34375 10.84375 C 15.246094 10.867188 15.152344 10.863281 15.050781 10.863281 C 15.011719 10.863281 15.011719 10.863281 14.96875 10.863281 C 14.910156 10.863281 14.851562 10.863281 14.792969 10.863281 C 14.703125 10.863281 14.613281 10.863281 14.519531 10.863281 C 14.464844 10.863281 14.40625 10.863281 14.347656 10.863281 C 14.324219 10.863281 14.296875 10.863281 14.269531 10.863281 C 14.082031 10.859375 14.082031 10.859375 13.984375 10.785156 C 13.929688 10.707031 13.910156 10.65625 13.90625 10.5625 C 13.929688 10.476562 13.953125 10.421875 14.015625 10.355469 C 14.132812 10.289062 14.242188 10.300781 14.375 10.300781 Z M 14.375 10.300781 "/>
<path style=" stroke:none;fill-rule:nonzero;fill:rgb(0%,13.333334%,21.568628%);fill-opacity:1;" d="M 14.34375 5.144531 C 14.371094 5.144531 14.398438 5.144531 14.429688 5.144531 C 14.488281 5.144531 14.546875 5.144531 14.605469 5.144531 C 14.695312 5.144531 14.785156 5.140625 14.878906 5.140625 C 14.933594 5.140625 14.992188 5.140625 15.050781 5.140625 C 15.089844 5.136719 15.089844 5.136719 15.132812 5.136719 C 15.269531 5.136719 15.328125 5.144531 15.4375 5.230469 C 15.5 5.3125 15.5 5.3125 15.511719 5.386719 C 15.507812 5.410156 15.503906 5.433594 15.5 5.457031 C 15.496094 5.492188 15.496094 5.492188 15.492188 5.527344 C 15.460938 5.617188 15.429688 5.640625 15.34375 5.6875 C 15.25 5.703125 15.15625 5.703125 15.0625 5.699219 C 15.035156 5.703125 15.007812 5.703125 14.980469 5.703125 C 14.921875 5.703125 14.867188 5.703125 14.808594 5.703125 C 14.722656 5.703125 14.632812 5.703125 14.546875 5.703125 C 14.488281 5.703125 14.433594 5.703125 14.378906 5.703125 C 14.339844 5.703125 14.339844 5.703125 14.300781 5.703125 C 14.171875 5.703125 14.109375 5.695312 14 5.628906 C 13.917969 5.542969 13.90625 5.492188 13.90625 5.375 C 14.011719 5.15625 14.113281 5.144531 14.34375 5.144531 Z M 14.34375 5.144531 "/>
<path style=" stroke:none;fill-rule:nonzero;fill:rgb(0%,13.333334%,21.568628%);fill-opacity:1;" d="M 0.949219 5.136719 C 0.988281 5.136719 0.988281 5.136719 1.03125 5.136719 C 1.089844 5.136719 1.148438 5.136719 1.207031 5.136719 C 1.296875 5.136719 1.386719 5.136719 1.480469 5.136719 C 1.535156 5.136719 1.59375 5.136719 1.652344 5.136719 C 1.675781 5.136719 1.703125 5.136719 1.730469 5.136719 C 1.917969 5.140625 1.917969 5.140625 2.015625 5.214844 C 2.070312 5.292969 2.089844 5.34375 2.09375 5.4375 C 2.070312 5.523438 2.046875 5.578125 1.984375 5.644531 C 1.867188 5.710938 1.757812 5.699219 1.625 5.699219 C 1.585938 5.699219 1.585938 5.699219 1.542969 5.699219 C 1.484375 5.699219 1.425781 5.699219 1.371094 5.699219 C 1.28125 5.699219 1.195312 5.699219 1.105469 5.699219 C 1.050781 5.699219 0.992188 5.699219 0.9375 5.699219 C 0.898438 5.699219 0.898438 5.699219 0.859375 5.699219 C 0.746094 5.699219 0.675781 5.699219 0.578125 5.644531 C 0.519531 5.582031 0.507812 5.542969 0.496094 5.457031 C 0.496094 5.433594 0.492188 5.410156 0.488281 5.386719 C 0.53125 5.140625 0.746094 5.132812 0.949219 5.136719 Z M 0.949219 5.136719 "/>
<path style=" stroke:none;fill-rule:nonzero;fill:rgb(1.176471%,14.509805%,21.176471%);fill-opacity:1;" d="M 10.375 11.71875 C 10.464844 11.789062 10.519531 11.84375 10.5625 11.953125 C 10.5625 12.058594 10.53125 12.105469 10.46875 12.1875 C 10.359375 12.261719 10.316406 12.269531 10.1875 12.25 C 10.097656 12.1875 10.042969 12.140625 10.015625 12.03125 C 10.007812 11.914062 10.023438 11.855469 10.097656 11.765625 C 10.203125 11.710938 10.257812 11.695312 10.375 11.71875 Z M 10.375 11.71875 "/>
</g>
</svg>
